<svg xmlns="http://www.w3.org/2000/svg" viewBox="0 0 1200 675" role="img" aria-labelledby="title desc">
  <title id="title">NLL proxy alignment pipeline for structured Korean UI copy</title>
  <desc id="desc">A clean pipeline diagram showing structured UI inputs, a format guardrail, NLL naturalness and context proxies, DPO pair construction, and optional GRPO refinement.</desc>
  <defs>
    <linearGradient id="bg" x1="0" x2="1" y1="0" y2="1">
      <stop offset="0" stop-color="#ffffff"/>
      <stop offset="1" stop-color="#f3f7fb"/>
    </linearGradient>
    <filter id="shadow" x="-20%" y="-30%" width="140%" height="170%">
      <feDropShadow dx="0" dy="16" stdDeviation="18" flood-color="#0f172a" flood-opacity="0.10"/>
    </filter>
    <marker id="arrow" viewBox="0 0 10 10" refX="9" refY="5" markerWidth="8" markerHeight="8" orient="auto-start-reverse">
      <path d="M 0 0 L 10 5 L 0 10 z" fill="#5f6672"/>
    </marker>
  </defs>
  <rect width="1200" height="675" fill="url(#bg)"/>
  <g opacity="0.65">
    <circle cx="1040" cy="110" r="110" fill="#dff1ff"/>
    <circle cx="170" cy="570" r="150" fill="#e8f6ef"/>
    <circle cx="1020" cy="600" r="90" fill="#fff0df"/>
  </g>
  <g transform="translate(95 108)">
    <text x="0" y="0" fill="#171717" font-family="Inter, Arial, sans-serif" font-size="32" font-weight="700">Structured UI Copy Alignment</text>
    <text x="0" y="42" fill="#5f6672" font-family="Inter, Arial, sans-serif" font-size="18">format admissibility + NLL naturalness/context proxies</text>
  </g>
  <g filter="url(#shadow)" font-family="Inter, Arial, sans-serif">
    <g transform="translate(95 220)">
      <rect width="180" height="120" rx="18" fill="#ffffff" stroke="#d9dde5"/>
      <text x="24" y="40" fill="#171717" font-size="17" font-weight="700">Input context</text>
      <text x="24" y="72" fill="#5f6672" font-size="14">product features</text>
      <text x="24" y="96" fill="#5f6672" font-size="14">usage situation</text>
    </g>
    <g transform="translate(340 220)">
      <rect width="190" height="120" rx="18" fill="#ffffff" stroke="#b7d7ee"/>
      <text x="24" y="40" fill="#171717" font-size="17" font-weight="700">Format guardrail</text>
      <text x="24" y="72" fill="#5f6672" font-size="14">field rules</text>
      <text x="24" y="96" fill="#5f6672" font-size="14">slot constraints</text>
    </g>
    <g transform="translate(595 185)">
      <rect width="205" height="92" rx="18" fill="#ffffff" stroke="#9fd8c0"/>
      <text x="24" y="38" fill="#171717" font-size="17" font-weight="700">NLL nat</text>
      <text x="24" y="64" fill="#5f6672" font-size="14">standalone fluency</text>
    </g>
    <g transform="translate(595 306)">
      <rect width="205" height="92" rx="18" fill="#ffffff" stroke="#f1bf85"/>
      <text x="24" y="38" fill="#171717" font-size="17" font-weight="700">NLL ctx</text>
      <text x="24" y="64" fill="#5f6672" font-size="14">context fit</text>
    </g>
    <g transform="translate(865 220)">
      <rect width="190" height="120" rx="18" fill="#ffffff" stroke="#c8cdf8"/>
      <text x="24" y="40" fill="#171717" font-size="17" font-weight="700">Preference pairs</text>
      <text x="24" y="72" fill="#5f6672" font-size="14">DPO training</text>
      <text x="24" y="96" fill="#5f6672" font-size="14">formatmix / GRPO</text>
    </g>
  </g>
  <g fill="none" stroke="#5f6672" stroke-width="2.5" marker-end="url(#arrow)">
    <path d="M275 280 C300 280 315 280 340 280"/>
    <path d="M530 280 C560 280 565 231 595 231"/>
    <path d="M530 280 C560 280 565 352 595 352"/>
    <path d="M800 231 C835 231 835 280 865 280"/>
    <path d="M800 352 C835 352 835 280 865 280"/>
  </g>
  <g font-family="Inter, Arial, sans-serif" font-size="13" fill="#5f6672">
    <text x="375" y="438">Hard validation is separated from soft language-quality supervision.</text>
    <text x="375" y="466">Lower NLL is used as an operational proxy, not a universal quality label.</text>
  </g>
</svg>
