<svg xmlns="http://www.w3.org/2000/svg" viewBox="0 0 1200 675" role="img" aria-labelledby="title desc">
  <title id="title">NLL proxy alignment for structured Korean UI content</title>
  <desc id="desc">A clean pipeline diagram showing structured UI content inputs, a format guardrail, NLL naturalness and context proxies, DPO pair construction, and optional GRPO refinement.</desc>
  <defs>
    <linearGradient id="bg" x1="0" x2="1" y1="0" y2="1">
      <stop offset="0" stop-color="#ffffff"/>
      <stop offset="1" stop-color="#f3f7fb"/>
    </linearGradient>
    <radialGradient id="dots-tl-fade" cx="18%" cy="22%" r="42%">
      <stop offset="0" stop-color="#ffffff" stop-opacity="0.92"/>
      <stop offset="0.48" stop-color="#ffffff" stop-opacity="0.38"/>
      <stop offset="1" stop-color="#ffffff" stop-opacity="0"/>
    </radialGradient>
    <radialGradient id="dots-br-fade" cx="80%" cy="78%" r="44%">
      <stop offset="0" stop-color="#ffffff" stop-opacity="0.84"/>
      <stop offset="0.45" stop-color="#ffffff" stop-opacity="0.34"/>
      <stop offset="1" stop-color="#ffffff" stop-opacity="0"/>
    </radialGradient>
    <mask id="dots-tl-mask">
      <rect width="1200" height="675" fill="url(#dots-tl-fade)"/>
    </mask>
    <mask id="dots-br-mask">
      <rect width="1200" height="675" fill="url(#dots-br-fade)"/>
    </mask>
    <pattern id="signal-dots" width="34" height="34" patternUnits="userSpaceOnUse">
      <circle cx="6" cy="6" r="1.15" fill="#86a9c2"/>
    </pattern>
    <pattern id="signal-dots-tight" width="17" height="17" patternUnits="userSpaceOnUse">
      <circle cx="4" cy="4" r="1.25" fill="#7fa8c4"/>
    </pattern>
    <pattern id="signal-dots-warm" width="21" height="21" patternUnits="userSpaceOnUse">
      <circle cx="5" cy="5" r="1.15" fill="#d6ac78"/>
    </pattern>
    <pattern id="signal-dots-secondary" width="54" height="54" patternUnits="userSpaceOnUse">
      <circle cx="10" cy="10" r="1.6" fill="#8fb8d4"/>
      <circle cx="36" cy="30" r="1.05" fill="#9fd8c0"/>
    </pattern>
    <filter id="shadow" x="-20%" y="-30%" width="140%" height="170%">
      <feDropShadow dx="0" dy="16" stdDeviation="18" flood-color="#0f172a" flood-opacity="0.10"/>
    </filter>
    <marker id="arrow" viewBox="0 0 10 10" refX="9" refY="5" markerWidth="6" markerHeight="6" orient="auto-start-reverse">
      <path d="M 0 0 L 10 5 L 0 10 z" fill="#5f6672"/>
    </marker>
  </defs>
  <rect width="1200" height="675" fill="url(#bg)"/>
  <rect width="1200" height="675" fill="url(#signal-dots)" opacity="0.16"/>
  <rect width="1200" height="675" fill="url(#signal-dots-tight)" opacity="0.48" mask="url(#dots-tl-mask)"/>
  <rect width="1200" height="675" fill="url(#signal-dots-tight)" opacity="0.30" transform="translate(9 9)" mask="url(#dots-tl-mask)"/>
  <rect width="1200" height="675" fill="url(#signal-dots-tight)" opacity="0.38" transform="translate(7 4)" mask="url(#dots-br-mask)"/>
  <rect width="1200" height="675" fill="url(#signal-dots-warm)" opacity="0.26" transform="translate(3 11)" mask="url(#dots-br-mask)"/>
  <rect width="1200" height="675" fill="url(#signal-dots-secondary)" opacity="0.22" transform="translate(13 7)" mask="url(#dots-tl-mask)"/>
  <rect width="1200" height="675" fill="url(#signal-dots-secondary)" opacity="0.18" transform="translate(31 19)" mask="url(#dots-br-mask)"/>
  <g transform="translate(95 168)">
    <text x="0" y="0" fill="#171717" font-family="Inter, Arial, sans-serif" font-size="32" font-weight="700">NLL Proxy Alignment for Structured Korean UI Content</text>
    <text x="0" y="42" fill="#5f6672" font-family="Inter, Arial, sans-serif" font-size="18">format admissibility + NLL naturalness/context proxies</text>
  </g>
  <g filter="url(#shadow)" font-family="Inter, Arial, sans-serif">
    <g transform="translate(95 280)">
      <rect width="180" height="120" rx="18" fill="#ffffff" stroke="#d9dde5"/>
      <text x="24" y="40" fill="#171717" font-size="17" font-weight="700">Input context</text>
      <text x="24" y="72" fill="#5f6672" font-size="14">product features</text>
      <text x="24" y="96" fill="#5f6672" font-size="14">usage situation</text>
    </g>
    <g transform="translate(340 280)">
      <rect width="190" height="120" rx="18" fill="#ffffff" stroke="#b7d7ee"/>
      <text x="24" y="40" fill="#171717" font-size="17" font-weight="700">Format guardrail</text>
      <text x="24" y="72" fill="#5f6672" font-size="14">field rules</text>
      <text x="24" y="96" fill="#5f6672" font-size="14">slot constraints</text>
    </g>
    <g transform="translate(595 245)">
      <rect width="205" height="92" rx="18" fill="#ffffff" stroke="#9fd8c0"/>
      <text x="24" y="38" fill="#171717" font-size="17" font-weight="700">NLL nat</text>
      <text x="24" y="64" fill="#5f6672" font-size="14">standalone fluency</text>
    </g>
    <g transform="translate(595 366)">
      <rect width="205" height="92" rx="18" fill="#ffffff" stroke="#f1bf85"/>
      <text x="24" y="38" fill="#171717" font-size="17" font-weight="700">NLL ctx</text>
      <text x="24" y="64" fill="#5f6672" font-size="14">context fit</text>
    </g>
    <g transform="translate(865 280)">
      <rect width="190" height="120" rx="18" fill="#ffffff" stroke="#c8cdf8"/>
      <text x="24" y="40" fill="#171717" font-size="17" font-weight="700">Preference pairs</text>
      <text x="24" y="72" fill="#5f6672" font-size="14">DPO training</text>
      <text x="24" y="96" fill="#5f6672" font-size="14">formatmix / GRPO</text>
    </g>
  </g>
  <g fill="none" stroke="#5f6672" stroke-width="2" marker-end="url(#arrow)">
    <path d="M275 340 C300 340 315 340 340 340"/>
    <path d="M530 340 C560 340 565 291 595 291"/>
    <path d="M530 340 C560 340 565 412 595 412"/>
    <path d="M800 291 C835 291 835 340 865 340"/>
    <path d="M800 412 C835 412 835 340 865 340"/>
  </g>
  <g font-family="Inter, Arial, sans-serif" font-size="13" fill="#5f6672">
    <text x="375" y="498">Format pass is treated as a hard UI constraint.</text>
    <text x="375" y="526">Lower NLL is a training proxy, not a universal quality score.</text>
  </g>
</svg>
