<svg width="1600" height="900" viewBox="0 0 1600 900" fill="none" xmlns="http://www.w3.org/2000/svg">
  <rect width="1600" height="900" fill="#FFFFFF"/>
  <rect x="88" y="96" width="1424" height="708" rx="12" fill="#F7F7FA"/>
  <path d="M182 669C302.503 522.637 429.803 449.455 563.9 449.455C765.045 449.455 803.444 611.545 962.013 611.545C1067.73 611.545 1181.39 540.697 1303 399" stroke="#3F41FF" stroke-width="10" stroke-linecap="round"/>
  <path d="M182 578C256.774 509.369 336.469 475.053 421.086 475.053C548.012 475.053 591.516 579.925 700.546 579.925C773.232 579.925 849.717 529.942 930 430" stroke="#111111" stroke-opacity="0.45" stroke-width="6" stroke-linecap="round"/>
  <circle cx="427" cy="475" r="14" fill="#111111"/>
  <circle cx="700" cy="580" r="14" fill="#3F41FF"/>
  <circle cx="963" cy="612" r="14" fill="#111111"/>
  <rect x="182" y="196" width="330" height="18" rx="9" fill="#111111" fill-opacity="0.1"/>
  <rect x="182" y="232" width="292" height="18" rx="9" fill="#111111" fill-opacity="0.06"/>
  <rect x="182" y="304" width="226" height="14" rx="7" fill="#3F41FF" fill-opacity="0.16"/>
  <rect x="182" y="338" width="412" height="14" rx="7" fill="#3F41FF" fill-opacity="0.1"/>
  <rect x="182" y="372" width="364" height="14" rx="7" fill="#3F41FF" fill-opacity="0.1"/>
  <rect x="1106" y="214" width="210" height="210" rx="12" fill="#F2F3F7"/>
  <rect x="1140" y="256" width="142" height="10" rx="5" fill="#111111" fill-opacity="0.12"/>
  <rect x="1140" y="286" width="120" height="10" rx="5" fill="#111111" fill-opacity="0.07"/>
  <rect x="1140" y="334" width="98" height="46" rx="23" fill="#3F41FF" fill-opacity="0.12"/>
  <rect x="1088" y="484" width="256" height="132" rx="12" fill="#F2F3F7"/>
  <rect x="1120" y="522" width="160" height="12" rx="6" fill="#111111" fill-opacity="0.1"/>
  <rect x="1120" y="554" width="190" height="12" rx="6" fill="#111111" fill-opacity="0.06"/>
  <rect x="1120" y="586" width="128" height="12" rx="6" fill="#111111" fill-opacity="0.06"/>
</svg>
