<svg xmlns="http://www.w3.org/2000/svg" width="1180" height="600" viewBox="0 0 1180 600" role="img" aria-labelledby="title desc">
  <title id="title">SFT-DPO-GRPO 재측정</title>
  <desc id="desc">같은 테스트셋에서 SFT, DPO, GRPO 변형의 public_pass, hidden_auto_pass, slot_stuffing을 비교한 막대 그래프.</desc>
  <defs>
    <style>
      text { font-family: system-ui, -apple-system, BlinkMacSystemFont, "Apple SD Gothic Neo", "Noto Sans CJK KR", "Malgun Gothic", "Segoe UI", sans-serif; letter-spacing: 0; }
      .title { fill: #111111; font-size: 25px; font-weight: 500; }
      .label { fill: #111111; font-size: 13px; font-weight: 500; }
      .small { fill: #5f6672; font-size: 12px; font-weight: 400; }
      .tick { fill: #5f6672; font-size: 11px; font-weight: 400; }
      .value { fill: #111111; font-size: 11.5px; font-weight: 500; }
      .value-on-bar { fill: #ffffff; font-size: 11.5px; font-weight: 500; }
      .axis { stroke: #9aa1ad; stroke-width: 1.2; }
      .grid { stroke: #d9dde5; stroke-width: 1; opacity: 0.72; }
    </style>
  </defs>
  <rect width="1180" height="600" fill="#ffffff"/>

  <text x="44" y="56" class="title">SFT-DPO-GRPO 재측정</text>
  <text x="44" y="84" class="small">같은 공유 테스트셋과 같은 평가 절차에서 다시 잰 형식 회복과 구조 아티팩트</text>

  <line x1="90" y1="430" x2="930" y2="430" class="axis"/>
  <line x1="90" y1="140" x2="90" y2="430" class="axis"/>
  <line x1="90" y1="430" x2="930" y2="430" class="grid"/>
  <line x1="90" y1="352.7" x2="930" y2="352.7" class="grid"/>
  <line x1="90" y1="275.3" x2="930" y2="275.3" class="grid"/>
  <line x1="90" y1="198.0" x2="930" y2="198.0" class="grid"/>
  <line x1="90" y1="140.0" x2="930" y2="140.0" class="grid"/>
  <text x="76" y="434" text-anchor="end" class="tick">0.00</text>
  <text x="76" y="356.7" text-anchor="end" class="tick">0.20</text>
  <text x="76" y="279.3" text-anchor="end" class="tick">0.40</text>
  <text x="76" y="202.0" text-anchor="end" class="tick">0.60</text>
  <text x="76" y="144.0" text-anchor="end" class="tick">0.75</text>

  <text x="155" y="464" text-anchor="middle" class="label">SFT</text>
  <rect x="119" y="150.0" width="22" height="280.0" rx="4" fill="#2f6fdf" opacity="0.9"/>
  <text x="130" y="166" text-anchor="middle" class="value-on-bar">0.724</text>
  <rect x="145" y="247.1" width="22" height="182.9" rx="4" fill="#2f7d65" opacity="0.9"/>
  <text x="156" y="263.1" text-anchor="middle" class="value-on-bar">0.473</text>
  <rect x="171" y="356.2" width="22" height="73.8" rx="4" fill="#6b7280" opacity="0.9"/>
  <text x="182" y="372.2" text-anchor="middle" class="value-on-bar">0.191</text>

  <text x="295" y="464" text-anchor="middle" class="label">DPO</text>
  <rect x="259" y="279.6" width="22" height="150.4" rx="4" fill="#2f6fdf" opacity="0.9"/>
  <text x="270" y="295.6" text-anchor="middle" class="value-on-bar">0.389</text>
  <rect x="285" y="322.5" width="22" height="107.5" rx="4" fill="#2f7d65" opacity="0.9"/>
  <text x="296" y="338.5" text-anchor="middle" class="value-on-bar">0.278</text>
  <rect x="311" y="345.7" width="22" height="84.3" rx="4" fill="#6b7280" opacity="0.9"/>
  <text x="322" y="361.7" text-anchor="middle" class="value-on-bar">0.218</text>

  <text x="435" y="464" text-anchor="middle" class="label">binary</text>
  <rect x="399" y="203.0" width="22" height="227.0" rx="4" fill="#2f6fdf" opacity="0.9"/>
  <text x="410" y="219.0" text-anchor="middle" class="value-on-bar">0.587</text>
  <rect x="425" y="252.1" width="22" height="177.9" rx="4" fill="#2f7d65" opacity="0.9"/>
  <text x="436" y="268.1" text-anchor="middle" class="value-on-bar">0.460</text>
  <rect x="451" y="182.5" width="22" height="247.5" rx="4" fill="#6b7280" opacity="0.9"/>
  <text x="462" y="198.5" text-anchor="middle" class="value-on-bar">0.640</text>

  <text x="575" y="464" text-anchor="middle" class="label">dense</text>
  <rect x="539" y="171.3" width="22" height="258.7" rx="4" fill="#2f6fdf" opacity="0.9"/>
  <text x="550" y="187.3" text-anchor="middle" class="value-on-bar">0.669</text>
  <rect x="565" y="230.1" width="22" height="199.9" rx="4" fill="#2f7d65" opacity="0.9"/>
  <text x="576" y="246.1" text-anchor="middle" class="value-on-bar">0.517</text>
  <rect x="591" y="171.7" width="22" height="258.3" rx="4" fill="#6b7280" opacity="0.9"/>
  <text x="602" y="187.7" text-anchor="middle" class="value-on-bar">0.668</text>

  <text x="715" y="464" text-anchor="middle" class="label">antistuff</text>
  <rect x="679" y="161.6" width="22" height="268.4" rx="4" fill="#2f6fdf" opacity="0.9"/>
  <text x="690" y="177.6" text-anchor="middle" class="value-on-bar">0.694</text>
  <rect x="705" y="205.7" width="22" height="224.3" rx="4" fill="#2f7d65" opacity="0.9"/>
  <text x="716" y="221.7" text-anchor="middle" class="value-on-bar">0.580</text>
  <rect x="731" y="424.2" width="22" height="5.8" rx="3" fill="#6b7280" opacity="0.9"/>
  <text x="742" y="416.2" text-anchor="middle" class="value">0.015</text>

  <text x="855" y="464" text-anchor="middle" class="label">antistuff2</text>
  <rect x="819" y="179.8" width="22" height="250.2" rx="4" fill="#2f6fdf" opacity="0.9"/>
  <text x="830" y="195.8" text-anchor="middle" class="value-on-bar">0.647</text>
  <rect x="845" y="223.2" width="22" height="206.8" rx="4" fill="#2f7d65" opacity="0.9"/>
  <text x="856" y="239.2" text-anchor="middle" class="value-on-bar">0.535</text>
  <rect x="871" y="375.5" width="22" height="54.5" rx="4" fill="#6b7280" opacity="0.9"/>
  <text x="882" y="391.5" text-anchor="middle" class="value-on-bar">0.141</text>

  <rect x="968" y="154" width="18" height="18" rx="4" fill="#2f6fdf" opacity="0.9"/>
  <text x="998" y="168" class="small">public_pass</text>
  <rect x="968" y="188" width="18" height="18" rx="4" fill="#2f7d65" opacity="0.9"/>
  <text x="998" y="202" class="small">hidden_auto_pass</text>
  <rect x="968" y="222" width="18" height="18" rx="4" fill="#6b7280" opacity="0.9"/>
  <text x="998" y="236" class="small">slot_stuffing</text>

  <text x="44" y="516" class="small">NLL_ctx median</text>
  <text x="155" y="516" text-anchor="middle" class="label">3.152</text>
  <text x="295" y="516" text-anchor="middle" class="label">2.641</text>
  <text x="435" y="516" text-anchor="middle" class="label">2.613</text>
  <text x="575" y="516" text-anchor="middle" class="label">2.625</text>
  <text x="715" y="516" text-anchor="middle" class="label">2.621</text>
  <text x="855" y="516" text-anchor="middle" class="label">2.621</text>
  <text x="44" y="548" class="small">DPO의 NLL 이득은 유지되지만, GRPO 형식 보정에서 slot stuffing이 별도로 커진다.</text>
</svg>
