<svg xmlns="http://www.w3.org/2000/svg" viewBox="0 0 1180 620" role="img" aria-labelledby="title desc">
<title id="title">SFT-DPO-GRPO recheck</title>
<desc id="desc">Grouped bars compare public pass, hidden automatic pass, and slot stuffing on the shared test set.</desc>
<defs>
  <style>
    text { font-family: Inter, "Segoe UI", Roboto, Helvetica, Arial, sans-serif; letter-spacing: 0; }
    .title { fill: #111111; font-size: 22px; font-weight: 700; }
    .label { fill: #111111; font-size: 16px; font-weight: 700; }
    .small { fill: #5f6672; font-size: 13px; font-weight: 400; }
    .tick { fill: #5f6672; font-size: 12px; font-weight: 400; }
    .value { fill: #111111; font-size: 13px; font-weight: 700; }
    .valueOn { fill: #ffffff; font-size: 13px; font-weight: 700; }
  </style>
  <filter id="shadow" x="-20%" y="-30%" width="140%" height="170%">
    <feDropShadow dx="0" dy="14" stdDeviation="18" flood-color="#111111" flood-opacity="0.07"/>
  </filter>
  
</defs>
<rect width="1180" height="620" fill="#ffffff"/>
<text x="54" y="70" class="title">SFT-DPO-GRPO recheck</text>

<line x1="95" y1="455.0" x2="980" y2="455.0" stroke="#111111" stroke-opacity="0.08"/>
<text x="82" y="459.0" text-anchor="end" class="tick">0.00</text>
<line x1="95" y1="375.0" x2="980" y2="375.0" stroke="#111111" stroke-opacity="0.08"/>
<text x="82" y="379.0" text-anchor="end" class="tick">0.20</text>
<line x1="95" y1="295.0" x2="980" y2="295.0" stroke="#111111" stroke-opacity="0.08"/>
<text x="82" y="299.0" text-anchor="end" class="tick">0.40</text>
<line x1="95" y1="215.0" x2="980" y2="215.0" stroke="#111111" stroke-opacity="0.08"/>
<text x="82" y="219.0" text-anchor="end" class="tick">0.60</text>
<line x1="95" y1="155.0" x2="980" y2="155.0" stroke="#111111" stroke-opacity="0.08"/>
<text x="82" y="159.0" text-anchor="end" class="tick">0.75</text>
<rect x="130" y="165.4" width="20" height="289.6" rx="4" fill="#3f41ff" opacity="0.88"/>
<rect x="156" y="265.8" width="20" height="189.2" rx="4" fill="#2529d8" opacity="0.88"/>
<rect x="182" y="378.6" width="20" height="76.4" rx="4" fill="#5f6672" opacity="0.88"/>
<text x="160" y="490" text-anchor="middle" class="label">SFT</text>
<rect x="280" y="299.4" width="20" height="155.6" rx="4" fill="#3f41ff" opacity="0.88"/>
<rect x="306" y="343.8" width="20" height="111.2" rx="4" fill="#2529d8" opacity="0.88"/>
<rect x="332" y="367.8" width="20" height="87.2" rx="4" fill="#5f6672" opacity="0.88"/>
<text x="310" y="490" text-anchor="middle" class="label">DPO</text>
<rect x="430" y="220.2" width="20" height="234.8" rx="4" fill="#3f41ff" opacity="0.88"/>
<rect x="456" y="271.0" width="20" height="184.0" rx="4" fill="#2529d8" opacity="0.88"/>
<rect x="482" y="199.0" width="20" height="256.0" rx="4" fill="#5f6672" opacity="0.88"/>
<text x="460" y="490" text-anchor="middle" class="label">binary</text>
<rect x="580" y="187.4" width="20" height="267.6" rx="4" fill="#3f41ff" opacity="0.88"/>
<rect x="606" y="248.2" width="20" height="206.8" rx="4" fill="#2529d8" opacity="0.88"/>
<rect x="632" y="187.8" width="20" height="267.2" rx="4" fill="#5f6672" opacity="0.88"/>
<text x="610" y="490" text-anchor="middle" class="label">dense</text>
<rect x="730" y="177.4" width="20" height="277.6" rx="4" fill="#3f41ff" opacity="0.88"/>
<rect x="756" y="223.0" width="20" height="232.0" rx="4" fill="#2529d8" opacity="0.88"/>
<rect x="782" y="449.0" width="20" height="6.0" rx="4" fill="#5f6672" opacity="0.88"/>
<text x="760" y="490" text-anchor="middle" class="label">antistuff</text>
<rect x="880" y="196.2" width="20" height="258.8" rx="4" fill="#3f41ff" opacity="0.88"/>
<rect x="906" y="241.0" width="20" height="214.0" rx="4" fill="#2529d8" opacity="0.88"/>
<rect x="932" y="398.6" width="20" height="56.4" rx="4" fill="#5f6672" opacity="0.88"/>
<text x="910" y="490" text-anchor="middle" class="label">antistuff2</text>
<rect x="965" y="131" width="18" height="18" rx="4" fill="#3f41ff" opacity="0.88"/><text x="993" y="145" class="small">public_pass</text>
<rect x="965" y="164" width="18" height="18" rx="4" fill="#2529d8" opacity="0.88"/><text x="993" y="178" class="small">hidden_auto_pass</text>
<rect x="965" y="197" width="18" height="18" rx="4" fill="#5f6672" opacity="0.88"/><text x="993" y="211" class="small">slot_stuffing</text>
</svg>
