<svg xmlns="http://www.w3.org/2000/svg" viewBox="0 0 1040 460" role="img" aria-labelledby="title desc">
  <title id="title">AAV LoRA and frozen Spearman seed-grid ranges by budget</title>
  <desc id="desc">A point-range chart compares AAV LoRA and frozen test Spearman across budgets 128, 192, and 256. Small points show the nine seed-pair runs, large markers show means, and horizontal lines show min-max seed-pair ranges.</desc>
  <rect width="1040" height="460" fill="#ffffff"/>

  <defs>
    <filter id="shadow" x="-12%" y="-18%" width="124%" height="136%">
      <feDropShadow dx="0" dy="14" stdDeviation="18" flood-color="#111111" flood-opacity="0.07"/>
    </filter>
  </defs>
  <g font-family="Plus Jakarta Sans, Segoe UI, Roboto, Helvetica, Arial, sans-serif">
    <g transform="translate(118 60)">
<text x="420.0" y="0.0" text-anchor="middle" font-size="15" font-weight="700" fill="#111111">AAV Test Spearman</text>
      <g transform="translate(0 30)">
        <text x="18.0" y="136.0" text-anchor="middle" font-size="11" font-weight="700" fill="#5f6672" transform="rotate(-90 18 136)">Label budget</text>
        <line x1="188.0" y1="0" x2="188.0" y2="270" stroke="#e6e8ee" stroke-width="1" stroke-dasharray="4 8"/>
        <text x="188.0" y="300.0" text-anchor="middle" font-size="12" font-weight="500" fill="#5f6672">-0.4</text>
        <line x1="324.0" y1="0" x2="324.0" y2="270" stroke="#e6e8ee" stroke-width="1" stroke-dasharray="4 8"/>
        <text x="324.0" y="300.0" text-anchor="middle" font-size="12" font-weight="500" fill="#5f6672">-0.2</text>
        <line x1="460.0" y1="0" x2="460.0" y2="270" stroke="#e6e8ee" stroke-width="1"/>
        <text x="460.0" y="300.0" text-anchor="middle" font-size="12" font-weight="500" fill="#5f6672">0</text>
        <line x1="596.0" y1="0" x2="596.0" y2="270" stroke="#e6e8ee" stroke-width="1" stroke-dasharray="4 8"/>
        <text x="596.0" y="300.0" text-anchor="middle" font-size="12" font-weight="500" fill="#5f6672">0.2</text>
        <line x1="732.0" y1="0" x2="732.0" y2="270" stroke="#e6e8ee" stroke-width="1" stroke-dasharray="4 8"/>
        <text x="732.0" y="300.0" text-anchor="middle" font-size="12" font-weight="500" fill="#5f6672">0.4</text>
        <line x1="154.0" y1="270.0" x2="834.0" y2="270.0" stroke="#e6e8ee" stroke-width="1"/>
        <text x="116.0" y="61.0" text-anchor="end" font-size="12" font-weight="600" fill="#5f6672">128</text>
        <text x="116.0" y="141.0" text-anchor="end" font-size="12" font-weight="600" fill="#5f6672">192</text>
        <text x="116.0" y="221.0" text-anchor="end" font-size="12" font-weight="600" fill="#5f6672">256</text>
        <line x1="193.4" y1="45.0" x2="780.8" y2="45.0" stroke="#3f41ff" stroke-width="2.0" opacity="0.55"/>
        <line x1="193.4" y1="40.0" x2="193.4" y2="50.0" stroke="#3f41ff" stroke-width="1.7" opacity="0.65"/>
        <line x1="780.8" y1="40.0" x2="780.8" y2="50.0" stroke="#3f41ff" stroke-width="1.7" opacity="0.65"/>
        <circle cx="502.2" cy="40.0" r="3.4" fill="#3f41ff" opacity="0.26"/>
        <circle cx="539.4" cy="43.0" r="3.4" fill="#3f41ff" opacity="0.26"/>
        <circle cx="193.4" cy="48.0" r="3.4" fill="#3f41ff" opacity="0.26"/>
        <circle cx="721.3" cy="50.0" r="3.4" fill="#3f41ff" opacity="0.26"/>
        <circle cx="767.9" cy="41.0" r="3.4" fill="#3f41ff" opacity="0.26"/>
        <circle cx="714.1" cy="46.0" r="3.4" fill="#3f41ff" opacity="0.26"/>
        <circle cx="719.3" cy="49.0" r="3.4" fill="#3f41ff" opacity="0.26"/>
        <circle cx="780.8" cy="44.0" r="3.4" fill="#3f41ff" opacity="0.26"/>
        <circle cx="714.5" cy="47.0" r="3.4" fill="#3f41ff" opacity="0.26"/>
        <polygon points="628.1,37.6 635.5,45.0 628.1,52.4 620.7,45.0" fill="#3f41ff" stroke="#ffffff" stroke-width="1.4"/>
        <text x="639.1" y="49.0" font-size="11" font-weight="700" fill="#3f41ff" text-anchor="start">0.247</text>
        <line x1="608.9" y1="125.0" x2="769.8" y2="125.0" stroke="#3f41ff" stroke-width="2.0" opacity="0.55"/>
        <line x1="608.9" y1="120.0" x2="608.9" y2="130.0" stroke="#3f41ff" stroke-width="1.7" opacity="0.65"/>
        <line x1="769.8" y1="120.0" x2="769.8" y2="130.0" stroke="#3f41ff" stroke-width="1.7" opacity="0.65"/>
        <circle cx="664.6" cy="120.0" r="3.4" fill="#3f41ff" opacity="0.26"/>
        <circle cx="608.9" cy="123.0" r="3.4" fill="#3f41ff" opacity="0.26"/>
        <circle cx="625.1" cy="128.0" r="3.4" fill="#3f41ff" opacity="0.26"/>
        <circle cx="730.1" cy="130.0" r="3.4" fill="#3f41ff" opacity="0.26"/>
        <circle cx="769.8" cy="121.0" r="3.4" fill="#3f41ff" opacity="0.26"/>
        <circle cx="741.5" cy="126.0" r="3.4" fill="#3f41ff" opacity="0.26"/>
        <circle cx="638.5" cy="129.0" r="3.4" fill="#3f41ff" opacity="0.26"/>
        <circle cx="728.4" cy="124.0" r="3.4" fill="#3f41ff" opacity="0.26"/>
        <circle cx="691.7" cy="127.0" r="3.4" fill="#3f41ff" opacity="0.26"/>
        <polygon points="688.7,117.6 696.1,125.0 688.7,132.4 681.3,125.0" fill="#3f41ff" stroke="#ffffff" stroke-width="1.4"/>
        <text x="699.7" y="129.0" font-size="11" font-weight="700" fill="#3f41ff" text-anchor="start">0.336</text>
        <line x1="554.2" y1="205.0" x2="815.7" y2="205.0" stroke="#3f41ff" stroke-width="2.0" opacity="0.55"/>
        <line x1="554.2" y1="200.0" x2="554.2" y2="210.0" stroke="#3f41ff" stroke-width="1.7" opacity="0.65"/>
        <line x1="815.7" y1="200.0" x2="815.7" y2="210.0" stroke="#3f41ff" stroke-width="1.7" opacity="0.65"/>
        <circle cx="706.8" cy="200.0" r="3.4" fill="#3f41ff" opacity="0.26"/>
        <circle cx="656.7" cy="203.0" r="3.4" fill="#3f41ff" opacity="0.26"/>
        <circle cx="554.2" cy="208.0" r="3.4" fill="#3f41ff" opacity="0.26"/>
        <circle cx="778.6" cy="210.0" r="3.4" fill="#3f41ff" opacity="0.26"/>
        <circle cx="788.4" cy="201.0" r="3.4" fill="#3f41ff" opacity="0.26"/>
        <circle cx="815.7" cy="206.0" r="3.4" fill="#3f41ff" opacity="0.26"/>
        <circle cx="693.7" cy="209.0" r="3.4" fill="#3f41ff" opacity="0.26"/>
        <circle cx="814.2" cy="204.0" r="3.4" fill="#3f41ff" opacity="0.26"/>
        <circle cx="801.6" cy="207.0" r="3.4" fill="#3f41ff" opacity="0.26"/>
        <polygon points="734.4,197.6 741.8,205.0 734.4,212.4 727.0,205.0" fill="#3f41ff" stroke="#ffffff" stroke-width="1.4"/>
        <text x="745.4" y="209.0" font-size="11" font-weight="700" fill="#3f41ff" text-anchor="start">0.404</text>
        <line x1="187.5" y1="69.0" x2="685.2" y2="69.0" stroke="#149b8f" stroke-width="2.0" opacity="0.55"/>
        <line x1="187.5" y1="64.0" x2="187.5" y2="74.0" stroke="#149b8f" stroke-width="1.7" opacity="0.65"/>
        <line x1="685.2" y1="64.0" x2="685.2" y2="74.0" stroke="#149b8f" stroke-width="1.7" opacity="0.65"/>
        <circle cx="503.5" cy="64.0" r="3.5" fill="#149b8f" stroke="#0b6f66" stroke-width="0.8" opacity="0.3"/>
        <circle cx="255.6" cy="67.0" r="3.5" fill="#149b8f" stroke="#0b6f66" stroke-width="0.8" opacity="0.3"/>
        <circle cx="187.5" cy="72.0" r="3.5" fill="#149b8f" stroke="#0b6f66" stroke-width="0.8" opacity="0.3"/>
        <circle cx="651.2" cy="74.0" r="3.5" fill="#149b8f" stroke="#0b6f66" stroke-width="0.8" opacity="0.3"/>
        <circle cx="418.4" cy="65.0" r="3.5" fill="#149b8f" stroke="#0b6f66" stroke-width="0.8" opacity="0.3"/>
        <circle cx="621.4" cy="70.0" r="3.5" fill="#149b8f" stroke="#0b6f66" stroke-width="0.8" opacity="0.3"/>
        <circle cx="685.2" cy="73.0" r="3.5" fill="#149b8f" stroke="#0b6f66" stroke-width="0.8" opacity="0.3"/>
        <circle cx="523.6" cy="68.0" r="3.5" fill="#149b8f" stroke="#0b6f66" stroke-width="0.8" opacity="0.3"/>
        <circle cx="671.2" cy="71.0" r="3.5" fill="#149b8f" stroke="#0b6f66" stroke-width="0.8" opacity="0.3"/>
        <polygon points="502.0,61.6 509.4,69.0 502.0,76.4 494.6,69.0" fill="#149b8f" stroke="#ffffff" stroke-width="1.4"/>
        <text x="513.0" y="73.0" font-size="11" font-weight="700" fill="#0b6f66" text-anchor="start">0.062</text>
        <line x1="204.7" y1="149.0" x2="668.8" y2="149.0" stroke="#149b8f" stroke-width="2.0" opacity="0.55"/>
        <line x1="204.7" y1="144.0" x2="204.7" y2="154.0" stroke="#149b8f" stroke-width="1.7" opacity="0.65"/>
        <line x1="668.8" y1="144.0" x2="668.8" y2="154.0" stroke="#149b8f" stroke-width="1.7" opacity="0.65"/>
        <circle cx="533.4" cy="144.0" r="3.5" fill="#149b8f" stroke="#0b6f66" stroke-width="0.8" opacity="0.3"/>
        <circle cx="267.9" cy="147.0" r="3.5" fill="#149b8f" stroke="#0b6f66" stroke-width="0.8" opacity="0.3"/>
        <circle cx="204.7" cy="152.0" r="3.5" fill="#149b8f" stroke="#0b6f66" stroke-width="0.8" opacity="0.3"/>
        <circle cx="657.7" cy="154.0" r="3.5" fill="#149b8f" stroke="#0b6f66" stroke-width="0.8" opacity="0.3"/>
        <circle cx="511.6" cy="145.0" r="3.5" fill="#149b8f" stroke="#0b6f66" stroke-width="0.8" opacity="0.3"/>
        <circle cx="373.0" cy="150.0" r="3.5" fill="#149b8f" stroke="#0b6f66" stroke-width="0.8" opacity="0.3"/>
        <circle cx="668.8" cy="153.0" r="3.5" fill="#149b8f" stroke="#0b6f66" stroke-width="0.8" opacity="0.3"/>
        <circle cx="268.6" cy="148.0" r="3.5" fill="#149b8f" stroke="#0b6f66" stroke-width="0.8" opacity="0.3"/>
        <circle cx="661.9" cy="151.0" r="3.5" fill="#149b8f" stroke="#0b6f66" stroke-width="0.8" opacity="0.3"/>
        <polygon points="460.8,141.6 468.2,149.0 460.8,156.4 453.4,149.0" fill="#149b8f" stroke="#ffffff" stroke-width="1.4"/>
        <text x="471.8" y="153.0" font-size="11" font-weight="700" fill="#0b6f66" text-anchor="start">0.001</text>
        <line x1="205.4" y1="229.0" x2="679.0" y2="229.0" stroke="#149b8f" stroke-width="2.0" opacity="0.55"/>
        <line x1="205.4" y1="224.0" x2="205.4" y2="234.0" stroke="#149b8f" stroke-width="1.7" opacity="0.65"/>
        <line x1="679.0" y1="224.0" x2="679.0" y2="234.0" stroke="#149b8f" stroke-width="1.7" opacity="0.65"/>
        <circle cx="617.2" cy="224.0" r="3.5" fill="#149b8f" stroke="#0b6f66" stroke-width="0.8" opacity="0.3"/>
        <circle cx="507.7" cy="227.0" r="3.5" fill="#149b8f" stroke="#0b6f66" stroke-width="0.8" opacity="0.3"/>
        <circle cx="205.4" cy="232.0" r="3.5" fill="#149b8f" stroke="#0b6f66" stroke-width="0.8" opacity="0.3"/>
        <circle cx="679.0" cy="234.0" r="3.5" fill="#149b8f" stroke="#0b6f66" stroke-width="0.8" opacity="0.3"/>
        <circle cx="556.1" cy="225.0" r="3.5" fill="#149b8f" stroke="#0b6f66" stroke-width="0.8" opacity="0.3"/>
        <circle cx="335.1" cy="230.0" r="3.5" fill="#149b8f" stroke="#0b6f66" stroke-width="0.8" opacity="0.3"/>
        <circle cx="668.0" cy="233.0" r="3.5" fill="#149b8f" stroke="#0b6f66" stroke-width="0.8" opacity="0.3"/>
        <circle cx="286.5" cy="228.0" r="3.5" fill="#149b8f" stroke="#0b6f66" stroke-width="0.8" opacity="0.3"/>
        <circle cx="645.5" cy="231.0" r="3.5" fill="#149b8f" stroke="#0b6f66" stroke-width="0.8" opacity="0.3"/>
        <polygon points="500.0,221.6 507.4,229.0 500.0,236.4 492.6,229.0" fill="#149b8f" stroke="#ffffff" stroke-width="1.4"/>
        <text x="511.0" y="233.0" font-size="11" font-weight="700" fill="#0b6f66" text-anchor="start">0.059</text>
      </g>
    </g>
    <g transform="translate(432 422)" font-size="14" font-weight="500" fill="#111111">
      <circle cx="7" cy="-3" r="6" fill="#3f41ff"/>
      <text x="24" y="2">LoRA</text>
      <circle cx="108" cy="-3" r="6" fill="#149b8f"/>
      <text x="125" y="2">Frozen</text>
    </g>
  </g>
</svg>