<svg xmlns="http://www.w3.org/2000/svg" viewBox="0 0 1040 480" role="img" aria-labelledby="title desc">
  <title id="title">LoRA and frozen Spearman seed-grid ranges by dataset and budget</title>
  <desc id="desc">A two-panel point-range chart compares LoRA and frozen test Spearman across GB1 and AAV budgets. Each panel uses a local x-axis range fitted to the observed seed-pair values. Small points show the nine seed-pair runs, large markers show means, and horizontal lines show min-max seed-pair ranges.</desc>
  <rect width="1040" height="480" fill="#ffffff"/>

  <defs>
    <filter id="shadow" x="-12%" y="-18%" width="124%" height="136%">
      <feDropShadow dx="0" dy="14" stdDeviation="18" flood-color="#111111" flood-opacity="0.07"/>
    </filter>
  </defs>
  <g font-family="Plus Jakarta Sans, Segoe UI, Roboto, Helvetica, Arial, sans-serif">
    <g transform="translate(52 36)" filter="url(#shadow)">
      <rect x="0" y="0" width="936" height="364" rx="24" fill="#ffffff" stroke="#e6e8ee"/>
    </g>
<g transform="translate(104 100)">
<text x="190.0" y="0.0" text-anchor="middle" font-size="15" font-weight="700" fill="#111111">GB1 Test Spearman</text>
<g transform="translate(0 28)">
<text x="10.0" y="95.0" text-anchor="middle" font-size="11" font-weight="700" fill="#5f6672" transform="rotate(-90 10 95)">Label budget</text>
<line x1="109.3" y1="0" x2="109.3" y2="190" stroke="#e6e8ee" stroke-width="1" stroke-dasharray="4 8"/>
<text x="109.3" y="217.0" text-anchor="middle" font-size="12" font-weight="500" fill="#5f6672">0.3</text>
<line x1="176.0" y1="0" x2="176.0" y2="190" stroke="#e6e8ee" stroke-width="1" stroke-dasharray="4 8"/>
<text x="176.0" y="217.0" text-anchor="middle" font-size="12" font-weight="500" fill="#5f6672">0.4</text>
<line x1="242.7" y1="0" x2="242.7" y2="190" stroke="#e6e8ee" stroke-width="1" stroke-dasharray="4 8"/>
<text x="242.7" y="217.0" text-anchor="middle" font-size="12" font-weight="500" fill="#5f6672">0.5</text>
<line x1="309.3" y1="0" x2="309.3" y2="190" stroke="#e6e8ee" stroke-width="1" stroke-dasharray="4 8"/>
<text x="309.3" y="217.0" text-anchor="middle" font-size="12" font-weight="500" fill="#5f6672">0.6</text>
<line x1="376.0" y1="0" x2="376.0" y2="190" stroke="#e6e8ee" stroke-width="1" stroke-dasharray="4 8"/>
<text x="376.0" y="217.0" text-anchor="middle" font-size="12" font-weight="500" fill="#5f6672">0.7</text>
<line x1="76.0" y1="190.0" x2="376.0" y2="190.0" stroke="#e6e8ee" stroke-width="1"/>
<text x="58.0" y="41.0" text-anchor="end" font-size="12" font-weight="600" fill="#5f6672">128</text>
<text x="58.0" y="101.0" text-anchor="end" font-size="12" font-weight="600" fill="#5f6672">192</text>
<text x="58.0" y="161.0" text-anchor="end" font-size="12" font-weight="600" fill="#5f6672">256</text>
<line x1="149.7" y1="27.0" x2="338.7" y2="27.0" stroke="#3f41ff" stroke-width="2.0" opacity="0.55"/>
<line x1="149.7" y1="22.0" x2="149.7" y2="32.0" stroke="#3f41ff" stroke-width="1.7" opacity="0.65"/>
<line x1="338.7" y1="22.0" x2="338.7" y2="32.0" stroke="#3f41ff" stroke-width="1.7" opacity="0.65"/>
<circle cx="171.7" cy="22.0" r="3.4" fill="#3f41ff" opacity="0.26"/>
<circle cx="223.9" cy="25.0" r="3.4" fill="#3f41ff" opacity="0.26"/>
<circle cx="338.7" cy="30.0" r="3.4" fill="#3f41ff" opacity="0.26"/>
<circle cx="149.7" cy="32.0" r="3.4" fill="#3f41ff" opacity="0.26"/>
<circle cx="162.6" cy="23.0" r="3.4" fill="#3f41ff" opacity="0.26"/>
<circle cx="161.5" cy="28.0" r="3.4" fill="#3f41ff" opacity="0.26"/>
<circle cx="173.6" cy="31.0" r="3.4" fill="#3f41ff" opacity="0.26"/>
<circle cx="325.0" cy="26.0" r="3.4" fill="#3f41ff" opacity="0.26"/>
<circle cx="310.6" cy="29.0" r="3.4" fill="#3f41ff" opacity="0.26"/>
<circle cx="224.1" cy="27.0" r="6.3" fill="#3f41ff" stroke="#ffffff" stroke-width="1.4"/>
<text x="235.1" y="31.0" font-size="11" font-weight="700" fill="#3f41ff" text-anchor="start">0.472</text>
<line x1="183.9" y1="87.0" x2="347.5" y2="87.0" stroke="#3f41ff" stroke-width="2.0" opacity="0.55"/>
<line x1="183.9" y1="82.0" x2="183.9" y2="92.0" stroke="#3f41ff" stroke-width="1.7" opacity="0.65"/>
<line x1="347.5" y1="82.0" x2="347.5" y2="92.0" stroke="#3f41ff" stroke-width="1.7" opacity="0.65"/>
<circle cx="183.9" cy="82.0" r="3.4" fill="#3f41ff" opacity="0.26"/>
<circle cx="340.5" cy="85.0" r="3.4" fill="#3f41ff" opacity="0.26"/>
<circle cx="347.5" cy="90.0" r="3.4" fill="#3f41ff" opacity="0.26"/>
<circle cx="210.2" cy="92.0" r="3.4" fill="#3f41ff" opacity="0.26"/>
<circle cx="214.3" cy="83.0" r="3.4" fill="#3f41ff" opacity="0.26"/>
<circle cx="299.4" cy="88.0" r="3.4" fill="#3f41ff" opacity="0.26"/>
<circle cx="207.4" cy="91.0" r="3.4" fill="#3f41ff" opacity="0.26"/>
<circle cx="339.0" cy="86.0" r="3.4" fill="#3f41ff" opacity="0.26"/>
<circle cx="327.8" cy="89.0" r="3.4" fill="#3f41ff" opacity="0.26"/>
<circle cx="274.5" cy="87.0" r="6.3" fill="#3f41ff" stroke="#ffffff" stroke-width="1.4"/>
<text x="285.5" y="91.0" font-size="11" font-weight="700" fill="#3f41ff" text-anchor="start">0.548</text>
<line x1="182.5" y1="147.0" x2="373.9" y2="147.0" stroke="#3f41ff" stroke-width="2.0" opacity="0.55"/>
<line x1="182.5" y1="142.0" x2="182.5" y2="152.0" stroke="#3f41ff" stroke-width="1.7" opacity="0.65"/>
<line x1="373.9" y1="142.0" x2="373.9" y2="152.0" stroke="#3f41ff" stroke-width="1.7" opacity="0.65"/>
<circle cx="334.9" cy="142.0" r="3.4" fill="#3f41ff" opacity="0.26"/>
<circle cx="331.1" cy="145.0" r="3.4" fill="#3f41ff" opacity="0.26"/>
<circle cx="322.1" cy="150.0" r="3.4" fill="#3f41ff" opacity="0.26"/>
<circle cx="182.5" cy="152.0" r="3.4" fill="#3f41ff" opacity="0.26"/>
<circle cx="372.9" cy="143.0" r="3.4" fill="#3f41ff" opacity="0.26"/>
<circle cx="373.9" cy="148.0" r="3.4" fill="#3f41ff" opacity="0.26"/>
<circle cx="316.6" cy="151.0" r="3.4" fill="#3f41ff" opacity="0.26"/>
<circle cx="364.1" cy="146.0" r="3.4" fill="#3f41ff" opacity="0.26"/>
<circle cx="334.3" cy="149.0" r="3.4" fill="#3f41ff" opacity="0.26"/>
<circle cx="325.8" cy="147.0" r="6.3" fill="#3f41ff" stroke="#ffffff" stroke-width="1.4"/>
<text x="336.8" y="151.0" font-size="11" font-weight="700" fill="#3f41ff" text-anchor="start">0.625</text>
<line x1="85.8" y1="47.0" x2="255.6" y2="47.0" stroke="#149b8f" stroke-width="2.0" opacity="0.55"/>
<line x1="85.8" y1="42.0" x2="85.8" y2="52.0" stroke="#149b8f" stroke-width="1.7" opacity="0.65"/>
<line x1="255.6" y1="42.0" x2="255.6" y2="52.0" stroke="#149b8f" stroke-width="1.7" opacity="0.65"/>
<circle cx="182.1" cy="42.0" r="3.5" fill="#149b8f" stroke="#0b6f66" stroke-width="0.8" opacity="0.3"/>
<circle cx="255.6" cy="45.0" r="3.5" fill="#149b8f" stroke="#0b6f66" stroke-width="0.8" opacity="0.3"/>
<circle cx="234.1" cy="50.0" r="3.5" fill="#149b8f" stroke="#0b6f66" stroke-width="0.8" opacity="0.3"/>
<circle cx="85.8" cy="52.0" r="3.5" fill="#149b8f" stroke="#0b6f66" stroke-width="0.8" opacity="0.3"/>
<circle cx="238.5" cy="43.0" r="3.5" fill="#149b8f" stroke="#0b6f66" stroke-width="0.8" opacity="0.3"/>
<circle cx="202.3" cy="48.0" r="3.5" fill="#149b8f" stroke="#0b6f66" stroke-width="0.8" opacity="0.3"/>
<circle cx="109.8" cy="51.0" r="3.5" fill="#149b8f" stroke="#0b6f66" stroke-width="0.8" opacity="0.3"/>
<circle cx="226.0" cy="46.0" r="3.5" fill="#149b8f" stroke="#0b6f66" stroke-width="0.8" opacity="0.3"/>
<circle cx="202.9" cy="49.0" r="3.5" fill="#149b8f" stroke="#0b6f66" stroke-width="0.8" opacity="0.3"/>
<circle cx="193.0" cy="47.0" r="6.3" fill="#149b8f" stroke="#ffffff" stroke-width="1.4"/>
<text x="204.0" y="51.0" font-size="11" font-weight="700" fill="#0b6f66" text-anchor="start">0.426</text>
<line x1="207.6" y1="107.0" x2="248.3" y2="107.0" stroke="#149b8f" stroke-width="2.0" opacity="0.55"/>
<line x1="207.6" y1="102.0" x2="207.6" y2="112.0" stroke="#149b8f" stroke-width="1.7" opacity="0.65"/>
<line x1="248.3" y1="102.0" x2="248.3" y2="112.0" stroke="#149b8f" stroke-width="1.7" opacity="0.65"/>
<circle cx="208.5" cy="102.0" r="3.5" fill="#149b8f" stroke="#0b6f66" stroke-width="0.8" opacity="0.3"/>
<circle cx="248.3" cy="105.0" r="3.5" fill="#149b8f" stroke="#0b6f66" stroke-width="0.8" opacity="0.3"/>
<circle cx="224.7" cy="110.0" r="3.5" fill="#149b8f" stroke="#0b6f66" stroke-width="0.8" opacity="0.3"/>
<circle cx="207.6" cy="112.0" r="3.5" fill="#149b8f" stroke="#0b6f66" stroke-width="0.8" opacity="0.3"/>
<circle cx="246.0" cy="103.0" r="3.5" fill="#149b8f" stroke="#0b6f66" stroke-width="0.8" opacity="0.3"/>
<circle cx="208.9" cy="108.0" r="3.5" fill="#149b8f" stroke="#0b6f66" stroke-width="0.8" opacity="0.3"/>
<circle cx="216.6" cy="111.0" r="3.5" fill="#149b8f" stroke="#0b6f66" stroke-width="0.8" opacity="0.3"/>
<circle cx="238.3" cy="106.0" r="3.5" fill="#149b8f" stroke="#0b6f66" stroke-width="0.8" opacity="0.3"/>
<circle cx="223.8" cy="109.0" r="3.5" fill="#149b8f" stroke="#0b6f66" stroke-width="0.8" opacity="0.3"/>
<circle cx="224.7" cy="107.0" r="6.3" fill="#149b8f" stroke="#ffffff" stroke-width="1.4"/>
<text x="235.7" y="111.0" font-size="11" font-weight="700" fill="#0b6f66" text-anchor="start">0.473</text>
<line x1="220.7" y1="167.0" x2="247.4" y2="167.0" stroke="#149b8f" stroke-width="2.0" opacity="0.55"/>
<line x1="220.7" y1="162.0" x2="220.7" y2="172.0" stroke="#149b8f" stroke-width="1.7" opacity="0.65"/>
<line x1="247.4" y1="162.0" x2="247.4" y2="172.0" stroke="#149b8f" stroke-width="1.7" opacity="0.65"/>
<circle cx="234.5" cy="162.0" r="3.5" fill="#149b8f" stroke="#0b6f66" stroke-width="0.8" opacity="0.3"/>
<circle cx="247.4" cy="165.0" r="3.5" fill="#149b8f" stroke="#0b6f66" stroke-width="0.8" opacity="0.3"/>
<circle cx="235.5" cy="170.0" r="3.5" fill="#149b8f" stroke="#0b6f66" stroke-width="0.8" opacity="0.3"/>
<circle cx="224.1" cy="172.0" r="3.5" fill="#149b8f" stroke="#0b6f66" stroke-width="0.8" opacity="0.3"/>
<circle cx="232.1" cy="163.0" r="3.5" fill="#149b8f" stroke="#0b6f66" stroke-width="0.8" opacity="0.3"/>
<circle cx="224.8" cy="168.0" r="3.5" fill="#149b8f" stroke="#0b6f66" stroke-width="0.8" opacity="0.3"/>
<circle cx="220.7" cy="171.0" r="3.5" fill="#149b8f" stroke="#0b6f66" stroke-width="0.8" opacity="0.3"/>
<circle cx="243.2" cy="166.0" r="3.5" fill="#149b8f" stroke="#0b6f66" stroke-width="0.8" opacity="0.3"/>
<circle cx="227.7" cy="169.0" r="3.5" fill="#149b8f" stroke="#0b6f66" stroke-width="0.8" opacity="0.3"/>
<circle cx="232.2" cy="167.0" r="6.3" fill="#149b8f" stroke="#ffffff" stroke-width="1.4"/>
<text x="243.2" y="171.0" font-size="11" font-weight="700" fill="#0b6f66" text-anchor="start">0.484</text>
</g></g>
<g transform="translate(548 100)">
<text x="190.0" y="0.0" text-anchor="middle" font-size="15" font-weight="700" fill="#111111">AAV Test Spearman</text>
<g transform="translate(0 28)">
<text x="10.0" y="95.0" text-anchor="middle" font-size="11" font-weight="700" fill="#5f6672" transform="rotate(-90 10 95)">Label budget</text>
<line x1="91.0" y1="0" x2="91.0" y2="190" stroke="#e6e8ee" stroke-width="1" stroke-dasharray="4 8"/>
<text x="91.0" y="217.0" text-anchor="middle" font-size="12" font-weight="500" fill="#5f6672">-0.4</text>
<line x1="151.0" y1="0" x2="151.0" y2="190" stroke="#e6e8ee" stroke-width="1" stroke-dasharray="4 8"/>
<text x="151.0" y="217.0" text-anchor="middle" font-size="12" font-weight="500" fill="#5f6672">-0.2</text>
<line x1="211.0" y1="0" x2="211.0" y2="190" stroke="#e6e8ee" stroke-width="1"/>
<text x="211.0" y="217.0" text-anchor="middle" font-size="12" font-weight="500" fill="#5f6672">0</text>
<line x1="271.0" y1="0" x2="271.0" y2="190" stroke="#e6e8ee" stroke-width="1" stroke-dasharray="4 8"/>
<text x="271.0" y="217.0" text-anchor="middle" font-size="12" font-weight="500" fill="#5f6672">0.2</text>
<line x1="331.0" y1="0" x2="331.0" y2="190" stroke="#e6e8ee" stroke-width="1" stroke-dasharray="4 8"/>
<text x="331.0" y="217.0" text-anchor="middle" font-size="12" font-weight="500" fill="#5f6672">0.4</text>
<line x1="76.0" y1="190.0" x2="376.0" y2="190.0" stroke="#e6e8ee" stroke-width="1"/>
<text x="58.0" y="41.0" text-anchor="end" font-size="12" font-weight="600" fill="#5f6672">128</text>
<text x="58.0" y="101.0" text-anchor="end" font-size="12" font-weight="600" fill="#5f6672">192</text>
<text x="58.0" y="161.0" text-anchor="end" font-size="12" font-weight="600" fill="#5f6672">256</text>
<line x1="93.4" y1="27.0" x2="352.5" y2="27.0" stroke="#3f41ff" stroke-width="2.0" opacity="0.55"/>
<line x1="93.4" y1="22.0" x2="93.4" y2="32.0" stroke="#3f41ff" stroke-width="1.7" opacity="0.65"/>
<line x1="352.5" y1="22.0" x2="352.5" y2="32.0" stroke="#3f41ff" stroke-width="1.7" opacity="0.65"/>
<circle cx="229.6" cy="22.0" r="3.4" fill="#3f41ff" opacity="0.26"/>
<circle cx="246.0" cy="25.0" r="3.4" fill="#3f41ff" opacity="0.26"/>
<circle cx="93.4" cy="30.0" r="3.4" fill="#3f41ff" opacity="0.26"/>
<circle cx="326.3" cy="32.0" r="3.4" fill="#3f41ff" opacity="0.26"/>
<circle cx="346.9" cy="23.0" r="3.4" fill="#3f41ff" opacity="0.26"/>
<circle cx="323.1" cy="28.0" r="3.4" fill="#3f41ff" opacity="0.26"/>
<circle cx="325.4" cy="31.0" r="3.4" fill="#3f41ff" opacity="0.26"/>
<circle cx="352.5" cy="26.0" r="3.4" fill="#3f41ff" opacity="0.26"/>
<circle cx="323.3" cy="29.0" r="3.4" fill="#3f41ff" opacity="0.26"/>
<circle cx="285.2" cy="27.0" r="6.3" fill="#3f41ff" stroke="#ffffff" stroke-width="1.4"/>
<text x="296.2" y="31.0" font-size="11" font-weight="700" fill="#3f41ff" text-anchor="start">0.247</text>
<line x1="276.7" y1="87.0" x2="347.7" y2="87.0" stroke="#3f41ff" stroke-width="2.0" opacity="0.55"/>
<line x1="276.7" y1="82.0" x2="276.7" y2="92.0" stroke="#3f41ff" stroke-width="1.7" opacity="0.65"/>
<line x1="347.7" y1="82.0" x2="347.7" y2="92.0" stroke="#3f41ff" stroke-width="1.7" opacity="0.65"/>
<circle cx="301.3" cy="82.0" r="3.4" fill="#3f41ff" opacity="0.26"/>
<circle cx="276.7" cy="85.0" r="3.4" fill="#3f41ff" opacity="0.26"/>
<circle cx="283.8" cy="90.0" r="3.4" fill="#3f41ff" opacity="0.26"/>
<circle cx="330.2" cy="92.0" r="3.4" fill="#3f41ff" opacity="0.26"/>
<circle cx="347.7" cy="83.0" r="3.4" fill="#3f41ff" opacity="0.26"/>
<circle cx="335.2" cy="88.0" r="3.4" fill="#3f41ff" opacity="0.26"/>
<circle cx="289.7" cy="91.0" r="3.4" fill="#3f41ff" opacity="0.26"/>
<circle cx="329.4" cy="86.0" r="3.4" fill="#3f41ff" opacity="0.26"/>
<circle cx="313.2" cy="89.0" r="3.4" fill="#3f41ff" opacity="0.26"/>
<circle cx="311.9" cy="87.0" r="6.3" fill="#3f41ff" stroke="#ffffff" stroke-width="1.4"/>
<text x="322.9" y="91.0" font-size="11" font-weight="700" fill="#3f41ff" text-anchor="start">0.336</text>
<line x1="252.6" y1="147.0" x2="367.9" y2="147.0" stroke="#3f41ff" stroke-width="2.0" opacity="0.55"/>
<line x1="252.6" y1="142.0" x2="252.6" y2="152.0" stroke="#3f41ff" stroke-width="1.7" opacity="0.65"/>
<line x1="367.9" y1="142.0" x2="367.9" y2="152.0" stroke="#3f41ff" stroke-width="1.7" opacity="0.65"/>
<circle cx="319.9" cy="142.0" r="3.4" fill="#3f41ff" opacity="0.26"/>
<circle cx="297.8" cy="145.0" r="3.4" fill="#3f41ff" opacity="0.26"/>
<circle cx="252.6" cy="150.0" r="3.4" fill="#3f41ff" opacity="0.26"/>
<circle cx="351.6" cy="152.0" r="3.4" fill="#3f41ff" opacity="0.26"/>
<circle cx="355.9" cy="143.0" r="3.4" fill="#3f41ff" opacity="0.26"/>
<circle cx="367.9" cy="148.0" r="3.4" fill="#3f41ff" opacity="0.26"/>
<circle cx="314.1" cy="151.0" r="3.4" fill="#3f41ff" opacity="0.26"/>
<circle cx="367.2" cy="146.0" r="3.4" fill="#3f41ff" opacity="0.26"/>
<circle cx="361.7" cy="149.0" r="3.4" fill="#3f41ff" opacity="0.26"/>
<circle cx="332.1" cy="147.0" r="6.3" fill="#3f41ff" stroke="#ffffff" stroke-width="1.4"/>
<text x="343.1" y="151.0" font-size="11" font-weight="700" fill="#3f41ff" text-anchor="start">0.404</text>
<line x1="90.8" y1="47.0" x2="310.3" y2="47.0" stroke="#149b8f" stroke-width="2.0" opacity="0.55"/>
<line x1="90.8" y1="42.0" x2="90.8" y2="52.0" stroke="#149b8f" stroke-width="1.7" opacity="0.65"/>
<line x1="310.3" y1="42.0" x2="310.3" y2="52.0" stroke="#149b8f" stroke-width="1.7" opacity="0.65"/>
<circle cx="230.2" cy="42.0" r="3.5" fill="#149b8f" stroke="#0b6f66" stroke-width="0.8" opacity="0.3"/>
<circle cx="120.8" cy="45.0" r="3.5" fill="#149b8f" stroke="#0b6f66" stroke-width="0.8" opacity="0.3"/>
<circle cx="90.8" cy="50.0" r="3.5" fill="#149b8f" stroke="#0b6f66" stroke-width="0.8" opacity="0.3"/>
<circle cx="295.4" cy="52.0" r="3.5" fill="#149b8f" stroke="#0b6f66" stroke-width="0.8" opacity="0.3"/>
<circle cx="192.7" cy="43.0" r="3.5" fill="#149b8f" stroke="#0b6f66" stroke-width="0.8" opacity="0.3"/>
<circle cx="282.2" cy="48.0" r="3.5" fill="#149b8f" stroke="#0b6f66" stroke-width="0.8" opacity="0.3"/>
<circle cx="310.3" cy="51.0" r="3.5" fill="#149b8f" stroke="#0b6f66" stroke-width="0.8" opacity="0.3"/>
<circle cx="239.0" cy="46.0" r="3.5" fill="#149b8f" stroke="#0b6f66" stroke-width="0.8" opacity="0.3"/>
<circle cx="304.2" cy="49.0" r="3.5" fill="#149b8f" stroke="#0b6f66" stroke-width="0.8" opacity="0.3"/>
<circle cx="229.5" cy="47.0" r="6.3" fill="#149b8f" stroke="#ffffff" stroke-width="1.4"/>
<text x="240.5" y="51.0" font-size="11" font-weight="700" fill="#0b6f66" text-anchor="start">0.062</text>
<line x1="98.4" y1="107.0" x2="303.1" y2="107.0" stroke="#149b8f" stroke-width="2.0" opacity="0.55"/>
<line x1="98.4" y1="102.0" x2="98.4" y2="112.0" stroke="#149b8f" stroke-width="1.7" opacity="0.65"/>
<line x1="303.1" y1="102.0" x2="303.1" y2="112.0" stroke="#149b8f" stroke-width="1.7" opacity="0.65"/>
<circle cx="243.4" cy="102.0" r="3.5" fill="#149b8f" stroke="#0b6f66" stroke-width="0.8" opacity="0.3"/>
<circle cx="126.3" cy="105.0" r="3.5" fill="#149b8f" stroke="#0b6f66" stroke-width="0.8" opacity="0.3"/>
<circle cx="98.4" cy="110.0" r="3.5" fill="#149b8f" stroke="#0b6f66" stroke-width="0.8" opacity="0.3"/>
<circle cx="298.2" cy="112.0" r="3.5" fill="#149b8f" stroke="#0b6f66" stroke-width="0.8" opacity="0.3"/>
<circle cx="233.8" cy="103.0" r="3.5" fill="#149b8f" stroke="#0b6f66" stroke-width="0.8" opacity="0.3"/>
<circle cx="172.6" cy="108.0" r="3.5" fill="#149b8f" stroke="#0b6f66" stroke-width="0.8" opacity="0.3"/>
<circle cx="303.1" cy="111.0" r="3.5" fill="#149b8f" stroke="#0b6f66" stroke-width="0.8" opacity="0.3"/>
<circle cx="126.5" cy="106.0" r="3.5" fill="#149b8f" stroke="#0b6f66" stroke-width="0.8" opacity="0.3"/>
<circle cx="300.1" cy="109.0" r="3.5" fill="#149b8f" stroke="#0b6f66" stroke-width="0.8" opacity="0.3"/>
<circle cx="211.4" cy="107.0" r="6.3" fill="#149b8f" stroke="#ffffff" stroke-width="1.4"/>
<text x="222.4" y="111.0" font-size="11" font-weight="700" fill="#0b6f66" text-anchor="start">0.001</text>
<line x1="98.7" y1="167.0" x2="307.6" y2="167.0" stroke="#149b8f" stroke-width="2.0" opacity="0.55"/>
<line x1="98.7" y1="162.0" x2="98.7" y2="172.0" stroke="#149b8f" stroke-width="1.7" opacity="0.65"/>
<line x1="307.6" y1="162.0" x2="307.6" y2="172.0" stroke="#149b8f" stroke-width="1.7" opacity="0.65"/>
<circle cx="280.4" cy="162.0" r="3.5" fill="#149b8f" stroke="#0b6f66" stroke-width="0.8" opacity="0.3"/>
<circle cx="232.0" cy="165.0" r="3.5" fill="#149b8f" stroke="#0b6f66" stroke-width="0.8" opacity="0.3"/>
<circle cx="98.7" cy="170.0" r="3.5" fill="#149b8f" stroke="#0b6f66" stroke-width="0.8" opacity="0.3"/>
<circle cx="307.6" cy="172.0" r="3.5" fill="#149b8f" stroke="#0b6f66" stroke-width="0.8" opacity="0.3"/>
<circle cx="253.4" cy="163.0" r="3.5" fill="#149b8f" stroke="#0b6f66" stroke-width="0.8" opacity="0.3"/>
<circle cx="155.9" cy="168.0" r="3.5" fill="#149b8f" stroke="#0b6f66" stroke-width="0.8" opacity="0.3"/>
<circle cx="302.8" cy="171.0" r="3.5" fill="#149b8f" stroke="#0b6f66" stroke-width="0.8" opacity="0.3"/>
<circle cx="134.4" cy="166.0" r="3.5" fill="#149b8f" stroke="#0b6f66" stroke-width="0.8" opacity="0.3"/>
<circle cx="292.8" cy="169.0" r="3.5" fill="#149b8f" stroke="#0b6f66" stroke-width="0.8" opacity="0.3"/>
<circle cx="228.7" cy="167.0" r="6.3" fill="#149b8f" stroke="#ffffff" stroke-width="1.4"/>
<text x="239.7" y="171.0" font-size="11" font-weight="700" fill="#0b6f66" text-anchor="start">0.059</text>
</g></g>
    <g transform="translate(432 444)" font-size="14" font-weight="500" fill="#111111">
      <circle cx="7" cy="-3" r="6" fill="#3f41ff"/>
      <text x="24" y="2">LoRA</text>
      <circle cx="108" cy="-3" r="6" fill="#149b8f"/>
      <text x="125" y="2">Frozen</text>
    </g>
  </g>
</svg>