<svg xmlns="http://www.w3.org/2000/svg" viewBox="0 0 1120 650" role="img" aria-labelledby="title desc">
  <title id="title">Molecular weight and raw pKD relationship</title>
  <desc id="desc">Scatter plot showing the positive relationship between RDKit molecular weight and experimental pKD in the OpenBind EV-A71 2A compound-level table.</desc>
  <rect width="1120" height="650" fill="#ffffff"/>
  <defs>
    <style>
      text { font-family: 'Plus Jakarta Sans', 'Segoe UI', Roboto, Helvetica, Arial, sans-serif; }
      .title { fill: #111111; font-size: 15px; font-weight: 700; }
      .tick { fill: #5f6672; font-size: 12px; font-weight: 500; }
      .axis-label { fill: #5f6672; font-size: 12.5px; font-weight: 600; }
      .grid { stroke: #e6e8ee; stroke-width: 1; stroke-dasharray: 4 8; }
      .axis { stroke: #cfd4dd; stroke-width: 1.2; }
      .trend { stroke: #4a4f59; stroke-width: 2.0; }
      .point { fill: #3f41ff; opacity: 0.46; stroke: #ffffff; stroke-width: 0.6; }
    </style>
  </defs>
  <text x="560" y="42" text-anchor="middle" class="title">Molecular weight already tracks raw pKD</text>
  <line x1="173.9" y1="100" x2="173.9" y2="544" class="grid"/>
  <text x="173.9" y="578" text-anchor="middle" class="tick">200</text>
  <line x1="313.6" y1="100" x2="313.6" y2="544" class="grid"/>
  <text x="313.6" y="578" text-anchor="middle" class="tick">250</text>
  <line x1="453.3" y1="100" x2="453.3" y2="544" class="grid"/>
  <text x="453.3" y="578" text-anchor="middle" class="tick">300</text>
  <line x1="593.0" y1="100" x2="593.0" y2="544" class="grid"/>
  <text x="593.0" y="578" text-anchor="middle" class="tick">350</text>
  <line x1="732.7" y1="100" x2="732.7" y2="544" class="grid"/>
  <text x="732.7" y="578" text-anchor="middle" class="tick">400</text>
  <line x1="872.4" y1="100" x2="872.4" y2="544" class="grid"/>
  <text x="872.4" y="578" text-anchor="middle" class="tick">450</text>
  <line x1="1012.1" y1="100" x2="1012.1" y2="544" class="grid"/>
  <text x="1012.1" y="578" text-anchor="middle" class="tick">500</text>
  <line x1="118" y1="471.5" x2="1040" y2="471.5" class="grid"/>
  <text x="92" y="475.5" text-anchor="middle" class="tick">4</text>
  <line x1="118" y1="380.9" x2="1040" y2="380.9" class="grid"/>
  <text x="92" y="384.9" text-anchor="middle" class="tick">5</text>
  <line x1="118" y1="290.3" x2="1040" y2="290.3" class="grid"/>
  <text x="92" y="294.3" text-anchor="middle" class="tick">6</text>
  <line x1="118" y1="199.7" x2="1040" y2="199.7" class="grid"/>
  <text x="92" y="203.7" text-anchor="middle" class="tick">7</text>
  <line x1="118" y1="109.1" x2="1040" y2="109.1" class="grid"/>
  <text x="92" y="113.1" text-anchor="middle" class="tick">8</text>
  <line x1="118" y1="544" x2="1040" y2="544" class="axis"/>
  <line x1="118" y1="100" x2="118" y2="544" class="axis"/>
  <text x="579.0" y="620" text-anchor="middle" class="axis-label">RDKit molecular weight</text>
  <text x="30" y="330" text-anchor="middle" transform="rotate(-90 30 330)" class="axis-label">Experimental pKD</text>
  <line x1="118.0" y1="476.0" x2="1040.0" y2="252.9" class="trend"/>
  <circle cx="398.3" cy="406.6" r="2.8" class="point"/>
  <circle cx="392.8" cy="470.4" r="2.8" class="point"/>
  <circle cx="415.1" cy="480.9" r="2.8" class="point"/>
  <circle cx="544.0" cy="341.4" r="2.8" class="point"/>
  <circle cx="224.9" cy="363.3" r="2.8" class="point"/>
  <circle cx="378.8" cy="371.9" r="2.8" class="point"/>
  <circle cx="476.8" cy="417.6" r="2.8" class="point"/>
  <circle cx="318.4" cy="367.2" r="2.8" class="point"/>
  <circle cx="245.6" cy="455.1" r="2.8" class="point"/>
  <circle cx="154.9" cy="386.1" r="2.8" class="point"/>
  <circle cx="462.7" cy="447.5" r="2.8" class="point"/>
  <circle cx="462.8" cy="388.4" r="2.8" class="point"/>
  <circle cx="468.3" cy="392.0" r="2.8" class="point"/>
  <circle cx="698.3" cy="420.4" r="2.8" class="point"/>
  <circle cx="591.4" cy="421.1" r="2.8" class="point"/>
  <circle cx="787.4" cy="266.2" r="2.8" class="point"/>
  <circle cx="966.4" cy="283.9" r="2.8" class="point"/>
  <circle cx="597.1" cy="490.1" r="2.8" class="point"/>
  <circle cx="653.0" cy="389.2" r="2.8" class="point"/>
  <circle cx="675.5" cy="295.6" r="2.8" class="point"/>
  <circle cx="636.2" cy="416.6" r="2.8" class="point"/>
  <circle cx="969.2" cy="300.5" r="2.8" class="point"/>
  <circle cx="647.3" cy="463.0" r="2.8" class="point"/>
  <circle cx="709.0" cy="348.3" r="2.8" class="point"/>
  <circle cx="786.8" cy="456.1" r="2.8" class="point"/>
  <circle cx="613.2" cy="407.0" r="2.8" class="point"/>
  <circle cx="534.9" cy="470.4" r="2.8" class="point"/>
  <circle cx="709.0" cy="172.3" r="2.8" class="point"/>
  <circle cx="786.8" cy="189.5" r="2.8" class="point"/>
  <circle cx="359.3" cy="410.9" r="2.8" class="point"/>
  <circle cx="776.0" cy="453.6" r="2.8" class="point"/>
  <circle cx="423.5" cy="471.2" r="2.8" class="point"/>
  <circle cx="135.4" cy="371.2" r="2.8" class="point"/>
  <circle cx="418.0" cy="417.2" r="2.8" class="point"/>
  <circle cx="423.5" cy="417.4" r="2.8" class="point"/>
  <circle cx="750.9" cy="330.8" r="2.8" class="point"/>
  <circle cx="141.0" cy="397.0" r="2.8" class="point"/>
  <circle cx="143.8" cy="346.8" r="2.8" class="point"/>
  <circle cx="535.3" cy="469.0" r="2.8" class="point"/>
  <circle cx="189.7" cy="287.1" r="2.8" class="point"/>
  <circle cx="518.7" cy="338.1" r="2.8" class="point"/>
  <circle cx="873.9" cy="313.3" r="2.8" class="point"/>
  <circle cx="834.8" cy="175.0" r="2.8" class="point"/>
  <circle cx="514.1" cy="393.7" r="2.8" class="point"/>
  <circle cx="589.6" cy="397.0" r="2.8" class="point"/>
  <circle cx="753.7" cy="378.3" r="2.8" class="point"/>
  <circle cx="714.5" cy="348.5" r="2.8" class="point"/>
  <circle cx="775.6" cy="334.7" r="2.8" class="point"/>
  <circle cx="306.0" cy="403.8" r="2.8" class="point"/>
  <circle cx="753.7" cy="181.8" r="2.8" class="point"/>
  <circle cx="555.1" cy="470.5" r="2.8" class="point"/>
  <circle cx="409.6" cy="290.3" r="2.8" class="point"/>
  <circle cx="504.6" cy="468.9" r="2.8" class="point"/>
  <circle cx="426.3" cy="419.2" r="2.8" class="point"/>
  <circle cx="429.1" cy="397.5" r="2.8" class="point"/>
  <circle cx="753.7" cy="274.9" r="2.8" class="point"/>
  <circle cx="426.3" cy="387.4" r="2.8" class="point"/>
  <circle cx="389.9" cy="450.9" r="2.8" class="point"/>
  <circle cx="579.9" cy="378.0" r="2.8" class="point"/>
  <circle cx="691.5" cy="496.9" r="2.8" class="point"/>
  <circle cx="483.4" cy="469.8" r="2.8" class="point"/>
  <circle cx="356.1" cy="414.2" r="2.8" class="point"/>
  <circle cx="577.1" cy="430.7" r="2.8" class="point"/>
  <circle cx="627.5" cy="396.4" r="2.8" class="point"/>
  <circle cx="619.1" cy="420.7" r="2.8" class="point"/>
  <circle cx="579.9" cy="465.2" r="2.8" class="point"/>
  <circle cx="471.0" cy="414.0" r="2.8" class="point"/>
  <circle cx="206.3" cy="414.5" r="2.8" class="point"/>
  <circle cx="483.4" cy="405.6" r="2.8" class="point"/>
  <circle cx="586.9" cy="472.5" r="2.8" class="point"/>
  <circle cx="488.9" cy="357.1" r="2.8" class="point"/>
  <circle cx="437.4" cy="452.5" r="2.8" class="point"/>
  <circle cx="462.7" cy="430.5" r="2.8" class="point"/>
  <circle cx="348.0" cy="416.4" r="2.8" class="point"/>
  <circle cx="483.4" cy="415.3" r="2.8" class="point"/>
  <circle cx="483.4" cy="400.3" r="2.8" class="point"/>
  <circle cx="483.4" cy="437.2" r="2.8" class="point"/>
  <circle cx="715.5" cy="390.0" r="2.8" class="point"/>
  <circle cx="556.1" cy="397.2" r="2.8" class="point"/>
  <circle cx="486.2" cy="429.3" r="2.8" class="point"/>
  <circle cx="447.0" cy="416.0" r="2.8" class="point"/>
  <circle cx="389.9" cy="384.9" r="2.8" class="point"/>
  <circle cx="486.2" cy="416.0" r="2.8" class="point"/>
  <circle cx="392.7" cy="374.3" r="2.8" class="point"/>
  <circle cx="597.1" cy="352.5" r="2.8" class="point"/>
  <circle cx="518.7" cy="366.3" r="2.8" class="point"/>
  <circle cx="420.7" cy="400.0" r="2.8" class="point"/>
  <circle cx="552.3" cy="444.7" r="2.8" class="point"/>
  <circle cx="314.4" cy="386.7" r="2.8" class="point"/>
  <circle cx="426.3" cy="385.2" r="2.8" class="point"/>
  <circle cx="387.2" cy="459.9" r="2.8" class="point"/>
  <circle cx="426.3" cy="385.2" r="2.8" class="point"/>
  <circle cx="389.9" cy="324.5" r="2.8" class="point"/>
  <circle cx="392.7" cy="415.7" r="2.8" class="point"/>
  <circle cx="272.5" cy="385.3" r="2.8" class="point"/>
  <circle cx="387.2" cy="375.9" r="2.8" class="point"/>
  <circle cx="389.9" cy="375.8" r="2.8" class="point"/>
  <circle cx="487.7" cy="343.7" r="2.8" class="point"/>
  <circle cx="426.3" cy="434.2" r="2.8" class="point"/>
  <circle cx="537.9" cy="370.9" r="2.8" class="point"/>
  <circle cx="387.2" cy="353.4" r="2.8" class="point"/>
  <circle cx="420.7" cy="415.2" r="2.8" class="point"/>
  <circle cx="348.0" cy="376.8" r="2.8" class="point"/>
  <circle cx="308.8" cy="414.7" r="2.8" class="point"/>
  <circle cx="348.0" cy="384.8" r="2.8" class="point"/>
  <circle cx="294.8" cy="404.4" r="2.8" class="point"/>
  <circle cx="448.7" cy="366.2" r="2.8" class="point"/>
  <circle cx="426.3" cy="343.2" r="2.8" class="point"/>
  <circle cx="387.2" cy="388.4" r="2.8" class="point"/>
  <circle cx="387.2" cy="329.6" r="2.8" class="point"/>
  <circle cx="429.1" cy="349.2" r="2.8" class="point"/>
  <circle cx="708.8" cy="387.2" r="2.8" class="point"/>
  <circle cx="546.6" cy="359.3" r="2.8" class="point"/>
  <circle cx="392.7" cy="355.8" r="2.8" class="point"/>
  <circle cx="431.9" cy="361.7" r="2.8" class="point"/>
  <circle cx="471.0" cy="333.4" r="2.8" class="point"/>
  <circle cx="389.9" cy="412.8" r="2.8" class="point"/>
  <circle cx="311.7" cy="328.6" r="2.8" class="point"/>
  <circle cx="389.9" cy="431.3" r="2.8" class="point"/>
  <circle cx="389.9" cy="403.4" r="2.8" class="point"/>
  <circle cx="801.2" cy="325.4" r="2.8" class="point"/>
  <circle cx="610.3" cy="396.1" r="2.8" class="point"/>
  <circle cx="731.3" cy="297.0" r="2.8" class="point"/>
  <circle cx="389.9" cy="442.1" r="2.8" class="point"/>
  <circle cx="389.9" cy="445.5" r="2.8" class="point"/>
  <circle cx="389.9" cy="386.4" r="2.8" class="point"/>
  <circle cx="392.7" cy="427.4" r="2.8" class="point"/>
  <circle cx="353.5" cy="415.5" r="2.8" class="point"/>
  <circle cx="493.4" cy="417.0" r="2.8" class="point"/>
  <circle cx="521.5" cy="469.9" r="2.8" class="point"/>
  <circle cx="370.6" cy="469.1" r="2.8" class="point"/>
  <circle cx="331.4" cy="398.2" r="2.8" class="point"/>
  <circle cx="454.5" cy="508.1" r="2.8" class="point"/>
  <circle cx="652.5" cy="428.7" r="2.8" class="point"/>
  <circle cx="485.1" cy="442.5" r="2.8" class="point"/>
  <circle cx="485.2" cy="416.5" r="2.8" class="point"/>
  <circle cx="767.6" cy="319.0" r="2.8" class="point"/>
  <circle cx="770.5" cy="287.5" r="2.8" class="point"/>
  <circle cx="700.5" cy="341.3" r="2.8" class="point"/>
  <circle cx="616.6" cy="294.3" r="2.8" class="point"/>
  <circle cx="650.2" cy="259.4" r="2.8" class="point"/>
  <circle cx="622.1" cy="259.2" r="2.8" class="point"/>
  <circle cx="927.2" cy="231.7" r="2.8" class="point"/>
  <circle cx="795.7" cy="394.3" r="2.8" class="point"/>
  <circle cx="644.7" cy="312.3" r="2.8" class="point"/>
  <circle cx="652.9" cy="257.4" r="2.8" class="point"/>
  <circle cx="686.5" cy="220.5" r="2.8" class="point"/>
  <circle cx="686.5" cy="288.0" r="2.8" class="point"/>
  <circle cx="686.5" cy="234.6" r="2.8" class="point"/>
  <circle cx="765.0" cy="323.5" r="2.8" class="point"/>
  <circle cx="694.9" cy="247.9" r="2.8" class="point"/>
  <circle cx="767.8" cy="271.0" r="2.8" class="point"/>
  <circle cx="647.4" cy="291.8" r="2.8" class="point"/>
  <circle cx="681.0" cy="222.9" r="2.8" class="point"/>
  <circle cx="681.0" cy="388.4" r="2.8" class="point"/>
  <circle cx="683.7" cy="313.7" r="2.8" class="point"/>
  <circle cx="686.5" cy="285.0" r="2.8" class="point"/>
  <circle cx="778.9" cy="388.9" r="2.8" class="point"/>
  <circle cx="806.8" cy="232.0" r="2.8" class="point"/>
  <circle cx="650.2" cy="250.6" r="2.8" class="point"/>
  <circle cx="655.7" cy="324.2" r="2.8" class="point"/>
  <circle cx="655.7" cy="220.0" r="2.8" class="point"/>
  <circle cx="725.8" cy="344.5" r="2.8" class="point"/>
  <circle cx="865.6" cy="318.6" r="2.8" class="point"/>
  <circle cx="787.3" cy="337.0" r="2.8" class="point"/>
  <circle cx="658.4" cy="233.8" r="2.8" class="point"/>
  <circle cx="658.5" cy="215.9" r="2.8" class="point"/>
  <circle cx="658.6" cy="341.2" r="2.8" class="point"/>
  <circle cx="801.2" cy="280.8" r="2.8" class="point"/>
  <circle cx="697.6" cy="293.5" r="2.8" class="point"/>
  <circle cx="616.6" cy="288.7" r="2.8" class="point"/>
  <circle cx="616.6" cy="306.9" r="2.8" class="point"/>
  <circle cx="652.5" cy="244.5" r="2.8" class="point"/>
  <circle cx="691.7" cy="463.8" r="2.8" class="point"/>
  <circle cx="691.7" cy="470.5" r="2.8" class="point"/>
  <circle cx="613.3" cy="456.4" r="2.8" class="point"/>
  <circle cx="691.7" cy="347.3" r="2.8" class="point"/>
  <circle cx="691.7" cy="366.1" r="2.8" class="point"/>
  <circle cx="646.8" cy="418.0" r="2.8" class="point"/>
  <circle cx="725.2" cy="469.5" r="2.8" class="point"/>
  <circle cx="697.2" cy="402.8" r="2.8" class="point"/>
  <circle cx="741.9" cy="290.7" r="2.8" class="point"/>
  <circle cx="691.5" cy="278.1" r="2.8" class="point"/>
  <circle cx="691.5" cy="250.2" r="2.8" class="point"/>
  <circle cx="935.0" cy="415.7" r="2.8" class="point"/>
  <circle cx="899.3" cy="394.1" r="2.8" class="point"/>
  <circle cx="848.9" cy="315.0" r="2.8" class="point"/>
  <circle cx="879.6" cy="314.6" r="2.8" class="point"/>
  <circle cx="767.6" cy="285.0" r="2.8" class="point"/>
  <circle cx="731.4" cy="270.5" r="2.8" class="point"/>
  <circle cx="736.9" cy="249.0" r="2.8" class="point"/>
  <circle cx="736.9" cy="234.4" r="2.8" class="point"/>
  <circle cx="658.7" cy="257.7" r="2.8" class="point"/>
  <circle cx="700.5" cy="265.1" r="2.8" class="point"/>
  <circle cx="544.0" cy="333.1" r="2.8" class="point"/>
  <circle cx="667.0" cy="375.3" r="2.8" class="point"/>
  <circle cx="672.6" cy="387.7" r="2.8" class="point"/>
  <circle cx="591.4" cy="410.4" r="2.8" class="point"/>
  <circle cx="650.2" cy="325.7" r="2.8" class="point"/>
  <circle cx="678.4" cy="370.8" r="2.8" class="point"/>
  <circle cx="549.5" cy="466.0" r="2.8" class="point"/>
  <circle cx="577.4" cy="310.9" r="2.8" class="point"/>
  <circle cx="577.4" cy="278.6" r="2.8" class="point"/>
  <circle cx="611.0" cy="320.2" r="2.8" class="point"/>
  <circle cx="611.0" cy="276.2" r="2.8" class="point"/>
  <circle cx="613.7" cy="270.1" r="2.8" class="point"/>
  <circle cx="613.7" cy="240.1" r="2.8" class="point"/>
  <circle cx="594.3" cy="310.6" r="2.8" class="point"/>
  <circle cx="845.8" cy="367.2" r="2.8" class="point"/>
  <circle cx="904.5" cy="321.4" r="2.8" class="point"/>
  <circle cx="806.6" cy="309.7" r="2.8" class="point"/>
  <circle cx="871.2" cy="282.5" r="2.8" class="point"/>
  <circle cx="773.4" cy="334.8" r="2.8" class="point"/>
  <circle cx="616.6" cy="334.8" r="2.8" class="point"/>
  <circle cx="652.5" cy="359.2" r="2.8" class="point"/>
  <circle cx="655.9" cy="348.4" r="2.8" class="point"/>
  <circle cx="432.0" cy="456.6" r="2.8" class="point"/>
  <circle cx="392.9" cy="416.2" r="2.8" class="point"/>
  <circle cx="591.4" cy="473.4" r="2.8" class="point"/>
  <circle cx="538.4" cy="261.6" r="2.8" class="point"/>
  <circle cx="504.8" cy="280.8" r="2.8" class="point"/>
  <circle cx="544.0" cy="388.8" r="2.8" class="point"/>
  <circle cx="532.6" cy="388.1" r="2.8" class="point"/>
  <circle cx="451.6" cy="482.1" r="2.8" class="point"/>
  <circle cx="432.0" cy="345.3" r="2.8" class="point"/>
  <circle cx="434.9" cy="491.5" r="2.8" class="point"/>
  <circle cx="401.3" cy="470.1" r="2.8" class="point"/>
  <circle cx="356.5" cy="469.2" r="2.8" class="point"/>
  <circle cx="532.8" cy="416.8" r="2.8" class="point"/>
  <circle cx="457.2" cy="394.1" r="2.8" class="point"/>
  <circle cx="465.6" cy="468.3" r="2.8" class="point"/>
  <circle cx="482.3" cy="486.0" r="2.8" class="point"/>
  <circle cx="476.8" cy="475.5" r="2.8" class="point"/>
  <circle cx="353.7" cy="471.0" r="2.8" class="point"/>
  <circle cx="465.6" cy="420.9" r="2.8" class="point"/>
  <circle cx="504.7" cy="469.9" r="2.8" class="point"/>
  <circle cx="515.9" cy="417.2" r="2.8" class="point"/>
  <circle cx="552.3" cy="362.1" r="2.8" class="point"/>
  <circle cx="465.6" cy="319.6" r="2.8" class="point"/>
  <circle cx="471.2" cy="426.7" r="2.8" class="point"/>
  <circle cx="471.2" cy="459.6" r="2.8" class="point"/>
  <circle cx="471.2" cy="470.9" r="2.8" class="point"/>
  <circle cx="476.8" cy="502.2" r="2.8" class="point"/>
  <circle cx="465.6" cy="466.9" r="2.8" class="point"/>
  <circle cx="392.9" cy="413.2" r="2.8" class="point"/>
  <circle cx="474.0" cy="417.0" r="2.8" class="point"/>
  <circle cx="434.8" cy="413.5" r="2.8" class="point"/>
  <circle cx="353.7" cy="417.0" r="2.8" class="point"/>
  <circle cx="437.6" cy="306.0" r="2.8" class="point"/>
  <circle cx="625.0" cy="182.1" r="2.8" class="point"/>
  <circle cx="630.6" cy="415.6" r="2.8" class="point"/>
  <circle cx="703.4" cy="416.2" r="2.8" class="point"/>
  <circle cx="625.0" cy="416.1" r="2.8" class="point"/>
  <circle cx="742.2" cy="457.3" r="2.8" class="point"/>
  <circle cx="664.2" cy="445.5" r="2.8" class="point"/>
  <circle cx="711.7" cy="362.8" r="2.8" class="point"/>
  <circle cx="764.9" cy="425.7" r="2.8" class="point"/>
  <circle cx="767.6" cy="416.4" r="2.8" class="point"/>
  <circle cx="736.8" cy="405.3" r="2.8" class="point"/>
  <circle cx="714.5" cy="415.2" r="2.8" class="point"/>
  <circle cx="552.3" cy="364.0" r="2.8" class="point"/>
  <circle cx="434.8" cy="372.1" r="2.8" class="point"/>
  <circle cx="434.8" cy="332.5" r="2.8" class="point"/>
  <circle cx="437.6" cy="339.9" r="2.8" class="point"/>
  <circle cx="538.3" cy="391.6" r="2.8" class="point"/>
  <circle cx="446.0" cy="493.2" r="2.8" class="point"/>
  <circle cx="434.8" cy="434.6" r="2.8" class="point"/>
  <circle cx="437.6" cy="455.5" r="2.8" class="point"/>
  <circle cx="448.9" cy="374.2" r="2.8" class="point"/>
  <circle cx="588.7" cy="451.8" r="2.8" class="point"/>
  <circle cx="434.8" cy="374.3" r="2.8" class="point"/>
  <circle cx="437.6" cy="451.5" r="2.8" class="point"/>
  <circle cx="437.6" cy="400.7" r="2.8" class="point"/>
  <circle cx="622.1" cy="328.4" r="2.8" class="point"/>
  <circle cx="557.9" cy="254.7" r="2.8" class="point"/>
  <circle cx="591.5" cy="283.6" r="2.8" class="point"/>
  <circle cx="669.8" cy="261.0" r="2.8" class="point"/>
  <circle cx="753.7" cy="309.6" r="2.8" class="point"/>
  <circle cx="720.2" cy="278.1" r="2.8" class="point"/>
  <circle cx="736.8" cy="200.2" r="2.8" class="point"/>
  <circle cx="781.4" cy="218.3" r="2.8" class="point"/>
  <circle cx="748.2" cy="262.7" r="2.8" class="point"/>
  <circle cx="787.1" cy="313.0" r="2.8" class="point"/>
  <circle cx="921.3" cy="268.1" r="2.8" class="point"/>
  <circle cx="877.9" cy="186.0" r="2.8" class="point"/>
  <circle cx="809.7" cy="237.7" r="2.8" class="point"/>
  <circle cx="893.5" cy="250.5" r="2.8" class="point"/>
  <circle cx="630.7" cy="242.5" r="2.8" class="point"/>
  <circle cx="781.8" cy="318.1" r="2.8" class="point"/>
  <circle cx="636.2" cy="251.7" r="2.8" class="point"/>
  <circle cx="945.0" cy="283.2" r="2.8" class="point"/>
  <circle cx="818.0" cy="260.7" r="2.8" class="point"/>
  <circle cx="896.5" cy="266.3" r="2.8" class="point"/>
  <circle cx="1025.2" cy="269.9" r="2.8" class="point"/>
  <circle cx="969.2" cy="243.9" r="2.8" class="point"/>
  <circle cx="907.5" cy="297.2" r="2.8" class="point"/>
  <circle cx="742.6" cy="278.4" r="2.8" class="point"/>
  <circle cx="781.8" cy="248.4" r="2.8" class="point"/>
  <circle cx="821.0" cy="255.1" r="2.8" class="point"/>
  <circle cx="826.5" cy="248.0" r="2.8" class="point"/>
  <circle cx="664.2" cy="238.7" r="2.8" class="point"/>
  <circle cx="667.0" cy="296.8" r="2.8" class="point"/>
  <circle cx="709.0" cy="182.8" r="2.8" class="point"/>
  <circle cx="787.4" cy="256.6" r="2.8" class="point"/>
  <circle cx="753.7" cy="302.3" r="2.8" class="point"/>
  <circle cx="829.2" cy="229.8" r="2.8" class="point"/>
  <circle cx="748.2" cy="130.8" r="2.8" class="point"/>
  <circle cx="669.8" cy="234.4" r="2.8" class="point"/>
  <circle cx="742.6" cy="114.7" r="2.8" class="point"/>
  <circle cx="787.4" cy="181.6" r="2.8" class="point"/>
  <circle cx="882.5" cy="368.4" r="2.8" class="point"/>
  <circle cx="893.6" cy="167.1" r="2.8" class="point"/>
  <circle cx="854.4" cy="273.1" r="2.8" class="point"/>
  <circle cx="843.3" cy="187.7" r="2.8" class="point"/>
  <circle cx="859.8" cy="271.2" r="2.8" class="point"/>
  <circle cx="709.0" cy="274.5" r="2.8" class="point"/>
  <circle cx="748.2" cy="350.9" r="2.8" class="point"/>
  <circle cx="750.9" cy="134.9" r="2.8" class="point"/>
  <circle cx="669.8" cy="358.7" r="2.8" class="point"/>
  <circle cx="742.6" cy="357.2" r="2.8" class="point"/>
  <circle cx="787.4" cy="306.3" r="2.8" class="point"/>
  <circle cx="893.6" cy="361.5" r="2.8" class="point"/>
  <circle cx="888.0" cy="246.2" r="2.8" class="point"/>
  <circle cx="815.1" cy="285.9" r="2.8" class="point"/>
  <circle cx="787.3" cy="185.2" r="2.8" class="point"/>
  <circle cx="829.2" cy="292.6" r="2.8" class="point"/>
  <circle cx="980.4" cy="282.9" r="2.8" class="point"/>
  <circle cx="669.8" cy="263.7" r="2.8" class="point"/>
  <circle cx="815.1" cy="206.4" r="2.8" class="point"/>
  <circle cx="759.4" cy="208.1" r="2.8" class="point"/>
  <circle cx="630.7" cy="227.3" r="2.8" class="point"/>
  <circle cx="843.3" cy="246.5" r="2.8" class="point"/>
  <circle cx="820.9" cy="308.9" r="2.8" class="point"/>
  <circle cx="927.2" cy="298.2" r="2.8" class="point"/>
  <circle cx="888.0" cy="326.4" r="2.8" class="point"/>
  <circle cx="845.9" cy="278.4" r="2.8" class="point"/>
  <circle cx="664.2" cy="239.7" r="2.8" class="point"/>
  <circle cx="764.9" cy="289.7" r="2.8" class="point"/>
  <circle cx="566.4" cy="317.6" r="2.8" class="point"/>
  <circle cx="437.6" cy="364.0" r="2.8" class="point"/>
  <circle cx="543.6" cy="429.6" r="2.8" class="point"/>
  <circle cx="491.7" cy="446.4" r="2.8" class="point"/>
  <circle cx="409.5" cy="384.0" r="2.8" class="point"/>
  <circle cx="619.9" cy="467.8" r="2.8" class="point"/>
  <circle cx="415.1" cy="455.2" r="2.8" class="point"/>
  <circle cx="449.8" cy="414.2" r="2.8" class="point"/>
  <circle cx="454.3" cy="402.3" r="2.8" class="point"/>
  <circle cx="454.3" cy="452.7" r="2.8" class="point"/>
  <circle cx="429.1" cy="443.8" r="2.8" class="point"/>
  <circle cx="216.6" cy="353.1" r="2.8" class="point"/>
  <circle cx="334.1" cy="379.4" r="2.8" class="point"/>
  <circle cx="367.5" cy="385.1" r="2.8" class="point"/>
  <circle cx="600.9" cy="452.0" r="2.8" class="point"/>
  <circle cx="359.3" cy="414.1" r="2.8" class="point"/>
  <circle cx="367.5" cy="371.1" r="2.8" class="point"/>
  <circle cx="459.9" cy="428.1" r="2.8" class="point"/>
  <circle cx="482.2" cy="386.6" r="2.8" class="point"/>
  <circle cx="403.9" cy="476.7" r="2.8" class="point"/>
  <circle cx="490.6" cy="417.4" r="2.8" class="point"/>
  <circle cx="342.5" cy="445.2" r="2.8" class="point"/>
  <circle cx="384.4" cy="383.8" r="2.8" class="point"/>
  <circle cx="694.9" cy="414.7" r="2.8" class="point"/>
  <circle cx="345.2" cy="388.9" r="2.8" class="point"/>
  <circle cx="345.2" cy="449.2" r="2.8" class="point"/>
  <circle cx="384.4" cy="382.8" r="2.8" class="point"/>
  <circle cx="345.2" cy="436.5" r="2.8" class="point"/>
  <circle cx="364.7" cy="398.6" r="2.8" class="point"/>
  <circle cx="328.3" cy="414.2" r="2.8" class="point"/>
  <circle cx="437.6" cy="397.4" r="2.8" class="point"/>
  <circle cx="353.6" cy="343.8" r="2.8" class="point"/>
  <circle cx="454.3" cy="459.0" r="2.8" class="point"/>
  <circle cx="465.5" cy="360.8" r="2.8" class="point"/>
  <circle cx="387.2" cy="502.9" r="2.8" class="point"/>
  <circle cx="768.8" cy="411.6" r="2.8" class="point"/>
  <circle cx="409.5" cy="385.9" r="2.8" class="point"/>
  <circle cx="409.5" cy="372.0" r="2.8" class="point"/>
  <circle cx="546.6" cy="416.8" r="2.8" class="point"/>
  <circle cx="348.0" cy="416.4" r="2.8" class="point"/>
  <circle cx="417.9" cy="314.0" r="2.8" class="point"/>
  <circle cx="454.3" cy="434.8" r="2.8" class="point"/>
  <circle cx="415.1" cy="434.4" r="2.8" class="point"/>
  <circle cx="426.4" cy="494.2" r="2.8" class="point"/>
  <circle cx="331.1" cy="411.5" r="2.8" class="point"/>
  <circle cx="448.7" cy="412.6" r="2.8" class="point"/>
  <circle cx="406.7" cy="359.4" r="2.8" class="point"/>
  <circle cx="457.0" cy="344.8" r="2.8" class="point"/>
  <circle cx="510.3" cy="377.1" r="2.8" class="point"/>
  <circle cx="266.8" cy="391.1" r="2.8" class="point"/>
  <circle cx="498.8" cy="365.7" r="2.8" class="point"/>
  <circle cx="613.7" cy="394.6" r="2.8" class="point"/>
  <circle cx="448.5" cy="365.5" r="2.8" class="point"/>
  <circle cx="373.0" cy="382.6" r="2.8" class="point"/>
  <circle cx="415.2" cy="350.3" r="2.8" class="point"/>
  <circle cx="370.3" cy="386.4" r="2.8" class="point"/>
  <circle cx="300.4" cy="375.2" r="2.8" class="point"/>
  <circle cx="300.4" cy="390.3" r="2.8" class="point"/>
  <circle cx="289.1" cy="401.0" r="2.8" class="point"/>
  <circle cx="154.8" cy="376.3" r="2.8" class="point"/>
  <circle cx="375.9" cy="416.2" r="2.8" class="point"/>
  <circle cx="415.1" cy="370.3" r="2.8" class="point"/>
  <circle cx="719.5" cy="384.7" r="2.8" class="point"/>
  <circle cx="233.2" cy="331.4" r="2.8" class="point"/>
  <circle cx="493.5" cy="471.0" r="2.8" class="point"/>
  <circle cx="415.1" cy="469.1" r="2.8" class="point"/>
  <circle cx="602.0" cy="405.7" r="2.8" class="point"/>
  <circle cx="415.1" cy="348.6" r="2.8" class="point"/>
  <circle cx="412.3" cy="371.7" r="2.8" class="point"/>
  <circle cx="599.1" cy="433.3" r="2.8" class="point"/>
  <circle cx="375.9" cy="414.9" r="2.8" class="point"/>
  <circle cx="375.9" cy="363.8" r="2.8" class="point"/>
  <circle cx="381.4" cy="425.8" r="2.8" class="point"/>
  <circle cx="378.7" cy="470.9" r="2.8" class="point"/>
  <circle cx="378.7" cy="433.0" r="2.8" class="point"/>
  <circle cx="390.0" cy="380.1" r="2.8" class="point"/>
  <circle cx="353.5" cy="417.3" r="2.8" class="point"/>
  <circle cx="370.4" cy="384.6" r="2.8" class="point"/>
  <circle cx="342.3" cy="374.0" r="2.8" class="point"/>
  <circle cx="420.7" cy="415.3" r="2.8" class="point"/>
  <circle cx="507.1" cy="442.9" r="2.8" class="point"/>
  <circle cx="373.1" cy="416.1" r="2.8" class="point"/>
  <circle cx="314.3" cy="448.4" r="2.8" class="point"/>
  <circle cx="280.9" cy="492.0" r="2.8" class="point"/>
  <circle cx="376.0" cy="417.7" r="2.8" class="point"/>
  <circle cx="685.7" cy="441.8" r="2.8" class="point"/>
  <circle cx="376.0" cy="414.2" r="2.8" class="point"/>
  <circle cx="468.0" cy="398.9" r="2.8" class="point"/>
  <circle cx="515.9" cy="364.6" r="2.8" class="point"/>
  <circle cx="376.1" cy="436.3" r="2.8" class="point"/>
  <circle cx="387.2" cy="415.4" r="2.8" class="point"/>
  <circle cx="331.4" cy="416.8" r="2.8" class="point"/>
  <circle cx="292.2" cy="416.5" r="2.8" class="point"/>
  <circle cx="421.0" cy="415.5" r="2.8" class="point"/>
  <circle cx="683.2" cy="489.0" r="2.8" class="point"/>
  <circle cx="589.5" cy="389.3" r="2.8" class="point"/>
  <circle cx="561.7" cy="468.1" r="2.8" class="point"/>
  <circle cx="496.2" cy="439.8" r="2.8" class="point"/>
  <circle cx="495.7" cy="465.6" r="2.8" class="point"/>
  <circle cx="415.2" cy="476.0" r="2.8" class="point"/>
  <circle cx="465.6" cy="512.1" r="2.8" class="point"/>
  <circle cx="415.1" cy="379.9" r="2.8" class="point"/>
  <circle cx="462.7" cy="474.7" r="2.8" class="point"/>
  <circle cx="465.5" cy="426.9" r="2.8" class="point"/>
  <circle cx="415.1" cy="475.1" r="2.8" class="point"/>
  <circle cx="460.0" cy="477.1" r="2.8" class="point"/>
  <circle cx="387.2" cy="440.2" r="2.8" class="point"/>
  <circle cx="563.4" cy="459.2" r="2.8" class="point"/>
  <circle cx="487.7" cy="450.7" r="2.8" class="point"/>
  <circle cx="402.3" cy="522.5" r="2.8" class="point"/>
  <circle cx="350.7" cy="367.0" r="2.8" class="point"/>
  <circle cx="622.7" cy="456.8" r="2.8" class="point"/>
  <circle cx="405.0" cy="412.3" r="2.8" class="point"/>
  <circle cx="402.3" cy="364.1" r="2.8" class="point"/>
  <circle cx="320.1" cy="418.1" r="2.8" class="point"/>
  <circle cx="405.0" cy="468.1" r="2.8" class="point"/>
  <circle cx="635.5" cy="433.1" r="2.8" class="point"/>
  <circle cx="405.0" cy="468.2" r="2.8" class="point"/>
  <circle cx="667.4" cy="496.4" r="2.8" class="point"/>
  <circle cx="244.5" cy="375.0" r="2.8" class="point"/>
  <circle cx="525.2" cy="414.7" r="2.8" class="point"/>
  <circle cx="597.0" cy="415.7" r="2.8" class="point"/>
  <circle cx="507.6" cy="424.9" r="2.8" class="point"/>
  <circle cx="356.3" cy="394.4" r="2.8" class="point"/>
  <circle cx="579.9" cy="366.7" r="2.8" class="point"/>
  <circle cx="535.3" cy="442.0" r="2.8" class="point"/>
  <circle cx="325.7" cy="467.7" r="2.8" class="point"/>
  <circle cx="535.5" cy="378.7" r="2.8" class="point"/>
  <circle cx="605.3" cy="337.5" r="2.8" class="point"/>
  <circle cx="577.5" cy="329.5" r="2.8" class="point"/>
  <circle cx="605.5" cy="368.6" r="2.8" class="point"/>
  <circle cx="487.8" cy="392.7" r="2.8" class="point"/>
  <circle cx="389.9" cy="330.5" r="2.8" class="point"/>
  <circle cx="517.0" cy="355.0" r="2.8" class="point"/>
  <circle cx="465.6" cy="396.6" r="2.8" class="point"/>
  <circle cx="511.4" cy="471.4" r="2.8" class="point"/>
  <circle cx="596.4" cy="428.1" r="2.8" class="point"/>
  <circle cx="420.7" cy="367.5" r="2.8" class="point"/>
  <circle cx="398.4" cy="411.0" r="2.8" class="point"/>
  <circle cx="429.2" cy="416.8" r="2.8" class="point"/>
  <circle cx="588.5" cy="416.3" r="2.8" class="point"/>
  <circle cx="378.7" cy="400.1" r="2.8" class="point"/>
  <circle cx="456.6" cy="403.1" r="2.8" class="point"/>
  <circle cx="550.3" cy="376.5" r="2.8" class="point"/>
  <circle cx="564.5" cy="471.4" r="2.8" class="point"/>
  <circle cx="628.2" cy="469.3" r="2.8" class="point"/>
  <circle cx="513.1" cy="379.8" r="2.8" class="point"/>
  <circle cx="477.8" cy="431.9" r="2.8" class="point"/>
  <circle cx="387.2" cy="459.8" r="2.8" class="point"/>
  <circle cx="443.3" cy="432.5" r="2.8" class="point"/>
  <circle cx="433.1" cy="419.0" r="2.8" class="point"/>
  <circle cx="433.1" cy="428.4" r="2.8" class="point"/>
  <circle cx="433.1" cy="471.1" r="2.8" class="point"/>
  <circle cx="423.5" cy="502.3" r="2.8" class="point"/>
  <circle cx="334.0" cy="366.1" r="2.8" class="point"/>
  <circle cx="219.3" cy="372.5" r="2.8" class="point"/>
</svg>
