<svg xmlns="http://www.w3.org/2000/svg" viewBox="0 0 1040 430" role="img" aria-labelledby="title desc">
  <title id="title">Vanilla pairwise, dense packed from Cho 2026, and sparse packed from this repository</title>
  <desc id="desc">A three-column diagram comparing vanilla pairwise DPO, the dense packed preference layout from Cho 2026, and the sparse packed backend path evaluated in this repository. Vanilla repeats the prompt, dense packed shares the prompt but still computes dense masked branch blocks, and sparse packed lets the backend skip masked branch blocks.</desc>
  <rect width="1040" height="430" fill="#ffffff"/>

  <defs>
    <style>
      .h { fill: #111111; font: 700 17px "Segoe UI", Roboto, Helvetica, Arial, sans-serif; }
      .sub { fill: #5f6672; font: 12px "Segoe UI", Roboto, Helvetica, Arial, sans-serif; }
      .lbl { fill: #111111; font: 700 12px "Segoe UI", Roboto, Helvetica, Arial, sans-serif; }
      .tiny { fill: #5f6672; font: 11px "Segoe UI", Roboto, Helvetica, Arial, sans-serif; }
      .value { fill: #3f41ff; font: 700 11px "Segoe UI", Roboto, Helvetica, Arial, sans-serif; }
      .white-label { fill: #ffffff; font: 700 12px "Segoe UI", Roboto, Helvetica, Arial, sans-serif; }
      .center { text-anchor: middle; }
    </style>
    <pattern id="masked" width="6" height="6" patternUnits="userSpaceOnUse">
      <rect width="6" height="6" fill="#eef0ff"/>
      <path d="M-1 -1 L7 7 M7 -1 L-1 7" stroke="#3f41ff" stroke-width="1" opacity="0.45"/>
    </pattern>
    <pattern id="skip" width="8" height="8" patternUnits="userSpaceOnUse">
      <rect width="8" height="8" fill="#ffffff"/>
      <path d="M1 7 L7 1" stroke="#c9d0dc" stroke-width="1.2"/>
    </pattern>
  </defs>

  <g font-family="Segoe UI, Roboto, Helvetica, Arial, sans-serif">
    <line x1="360" y1="36" x2="360" y2="394" stroke="#e6e8ee"/>
    <line x1="682" y1="36" x2="682" y2="394" stroke="#e6e8ee"/>

    <g transform="translate(58 44)">
      <text class="h" x="0" y="0">Vanilla pairwise</text>
      <text class="sub" x="0" y="24">Two sequences; prompt repeats.</text>

      <g transform="translate(0 76)">
        <rect x="0" y="0" width="96" height="28" rx="7" fill="#dfe3ea"/>
        <rect x="108" y="0" width="132" height="28" rx="7" fill="#3f41ff"/>
        <text class="lbl center" x="48" y="14" dy=".35em">prompt</text>
        <text class="white-label center" x="174" y="14" dy=".35em">chosen</text>
        <rect x="0" y="46" width="96" height="28" rx="7" fill="#dfe3ea"/>
        <rect x="108" y="46" width="132" height="28" rx="7" fill="#ffffff" stroke="#3f41ff" stroke-width="2"/>
        <text class="lbl center" x="48" y="60" dy=".35em">prompt</text>
        <text class="value center" x="174" y="60" dy=".35em">rejected</text>
      </g>

      <g transform="translate(0 198)">
        <text class="tiny" x="0" y="0">Attention work</text>
        <rect x="0" y="20" width="74" height="74" rx="8" fill="#eef1f6" stroke="#d7dce5"/>
        <rect x="92" y="20" width="74" height="74" rx="8" fill="#eef1f6" stroke="#d7dce5"/>
        <text class="tiny center" x="37" y="57" dy=".35em">P+C</text>
        <text class="tiny center" x="129" y="57" dy=".35em">P+R</text>
        <text class="sub" x="0" y="124">Correct, but prompt-side work repeats.</text>
      </g>
    </g>

    <g transform="translate(402 44)">
      <text class="h" x="0" y="0">Dense packed (Cho 2026)</text>
      <text class="sub" x="0" y="24">Shared prompt; dense masked branches.</text>

      <g transform="translate(0 76)">
        <rect x="0" y="23" width="96" height="34" rx="8" fill="#dfe3ea"/>
        <rect x="110" y="0" width="132" height="28" rx="7" fill="#3f41ff"/>
        <rect x="110" y="52" width="132" height="28" rx="7" fill="#ffffff" stroke="#3f41ff" stroke-width="2"/>
        <path d="M96 40 C106 40, 104 14, 110 14" fill="none" stroke="#9aa3b2" stroke-width="1.4"/>
        <path d="M96 40 C106 40, 104 66, 110 66" fill="none" stroke="#9aa3b2" stroke-width="1.4"/>
        <text class="lbl center" x="48" y="40" dy=".35em">prompt</text>
        <text class="white-label center" x="176" y="14" dy=".35em">chosen</text>
        <text class="value center" x="176" y="66" dy=".35em">rejected</text>
      </g>

      <g transform="translate(0 198)">
        <text class="tiny" x="0" y="0">Dense score matrix</text>
        <g transform="translate(0 20)">
          <rect x="0" y="0" width="45" height="45" fill="#eef1f6" stroke="#ffffff"/>
          <rect x="45" y="0" width="45" height="45" fill="#eef1f6" stroke="#ffffff"/>
          <rect x="90" y="0" width="45" height="45" fill="#eef1f6" stroke="#ffffff"/>
          <rect x="0" y="45" width="45" height="45" fill="#eef1f6" stroke="#ffffff"/>
          <rect x="45" y="45" width="45" height="45" fill="#eef1f6" stroke="#ffffff"/>
          <rect x="90" y="45" width="45" height="45" fill="url(#masked)" stroke="#ffffff"/>
          <rect x="0" y="90" width="45" height="45" fill="#eef1f6" stroke="#ffffff"/>
          <rect x="45" y="90" width="45" height="45" fill="url(#masked)" stroke="#ffffff"/>
          <rect x="90" y="90" width="45" height="45" fill="#eef1f6" stroke="#ffffff"/>
          <text class="tiny center" x="22.5" y="22.5" dy=".35em">P</text>
          <text class="tiny center" x="67.5" y="22.5" dy=".35em">C</text>
          <text class="tiny center" x="112.5" y="22.5" dy=".35em">R</text>
        </g>
        <text class="sub" x="150" y="78">masked</text>
        <text class="sub" x="150" y="94">but computed</text>
      </g>
    </g>

    <g transform="translate(724 44)">
      <text class="h" x="0" y="0">Sparse packed (Ours)</text>
      <text class="sub" x="0" y="24">Same layout; skipped branch blocks.</text>

      <g transform="translate(0 76)">
        <rect x="0" y="23" width="96" height="34" rx="8" fill="#dfe3ea"/>
        <rect x="110" y="0" width="132" height="28" rx="7" fill="#3f41ff"/>
        <rect x="110" y="52" width="132" height="28" rx="7" fill="#ffffff" stroke="#3f41ff" stroke-width="2"/>
        <path d="M96 40 C106 40, 104 14, 110 14" fill="none" stroke="#9aa3b2" stroke-width="1.4"/>
        <path d="M96 40 C106 40, 104 66, 110 66" fill="none" stroke="#9aa3b2" stroke-width="1.4"/>
        <text class="lbl center" x="48" y="40" dy=".35em">prompt</text>
        <text class="white-label center" x="176" y="14" dy=".35em">chosen</text>
        <text class="value center" x="176" y="66" dy=".35em">rejected</text>
      </g>

      <g transform="translate(0 198)">
        <text class="tiny" x="0" y="0">Sparse block mask</text>
        <g transform="translate(0 20)">
          <rect x="0" y="0" width="45" height="45" fill="#eef1f6" stroke="#ffffff"/>
          <rect x="45" y="0" width="45" height="45" fill="#eef1f6" stroke="#ffffff"/>
          <rect x="90" y="0" width="45" height="45" fill="#eef1f6" stroke="#ffffff"/>
          <rect x="0" y="45" width="45" height="45" fill="#eef1f6" stroke="#ffffff"/>
          <rect x="45" y="45" width="45" height="45" fill="#eef1f6" stroke="#ffffff"/>
          <rect x="90" y="45" width="45" height="45" fill="url(#skip)" stroke="#c9d0dc" stroke-dasharray="4 3"/>
          <rect x="0" y="90" width="45" height="45" fill="#eef1f6" stroke="#ffffff"/>
          <rect x="45" y="90" width="45" height="45" fill="url(#skip)" stroke="#c9d0dc" stroke-dasharray="4 3"/>
          <rect x="90" y="90" width="45" height="45" fill="#eef1f6" stroke="#ffffff"/>
          <text class="tiny center" x="22.5" y="22.5" dy=".35em">P</text>
          <text class="tiny center" x="67.5" y="22.5" dy=".35em">C</text>
          <text class="tiny center" x="112.5" y="22.5" dy=".35em">R</text>
        </g>
        <text class="sub" x="150" y="78">skipped</text>
        <text class="sub" x="150" y="94">blocks</text>
      </g>
    </g>
  </g>
</svg>
