<svg xmlns="http://www.w3.org/2000/svg" viewBox="0 0 1040 530" role="img" aria-labelledby="title desc">
  <title id="title">Selected top-25 conditions</title>
  <desc id="desc">A horizontal point chart compares random, raw likelihood, DPO delta, and position baseline top-25 high-fitness hit rates for selected ProteinGym assay settings, not a benchmark-wide summary.</desc>
  <rect width="1040" height="530" fill="#ffffff"/>
  <defs><style>
    text { font-family: 'Plus Jakarta Sans', 'Segoe UI', Roboto, Helvetica, Arial, sans-serif; }
    .title { fill:#111111; font-size:15px; font-weight:700; }
    .subtitle { fill:#5f6672; font-size:12px; font-weight:500; }
    .label { fill:#111111; font-size:12.5px; font-weight:650; }
    .tick { fill:#5f6672; font-size:12px; font-weight:500; }
    .grid { stroke:#e6e8ee; stroke-width:1; stroke-dasharray:4 8; }
    .axis { stroke:#cfd4dd; stroke-width:1; }
    .legend-text { fill:#5f6672; font-size:11.5px; font-weight:600; }
  </style></defs>
  <g font-family="'Plus Jakarta Sans', 'Segoe UI', Roboto, Helvetica, Arial, sans-serif">
<text x="520.0" y="34" text-anchor="middle" font-size="15" font-weight="700" fill="#111111" class="title">Selected top-25 conditions</text>
<text x="520.0" y="56" text-anchor="middle" font-size="12" font-weight="500" fill="#5f6672" class="subtitle">Seven selected conditions; not a benchmark-wide summary</text>
<line x1="220.0" y1="64" x2="220.0" y2="412" class="grid"/>
<text x="220" y="436" text-anchor="middle" font-size="12" font-weight="500" fill="#5f6672" class="tick">0</text>
<line x1="387.5" y1="64" x2="387.5" y2="412" class="grid"/>
<text x="387.5" y="436" text-anchor="middle" font-size="12" font-weight="500" fill="#5f6672" class="tick">0.25</text>
<line x1="555.0" y1="64" x2="555.0" y2="412" class="grid"/>
<text x="555.0" y="436" text-anchor="middle" font-size="12" font-weight="500" fill="#5f6672" class="tick">0.5</text>
<line x1="722.5" y1="64" x2="722.5" y2="412" class="grid"/>
<text x="722.5" y="436" text-anchor="middle" font-size="12" font-weight="500" fill="#5f6672" class="tick">0.75</text>
<line x1="890.0" y1="64" x2="890.0" y2="412" class="grid"/>
<text x="890.0" y="436" text-anchor="middle" font-size="12" font-weight="500" fill="#5f6672" class="tick">1</text>
<line x1="220" y1="412" x2="890" y2="412" class="axis"/>
<text x="555.0" y="468" text-anchor="middle" font-size="12" font-weight="600" fill="#5f6672" >Top-25 high-fitness hit rate</text>
<text x="40" y="84.0" text-anchor="start" font-size="12.5" font-weight="650" fill="#111111" class="label">IF1</text>
<line x1="389.5" y1="80.0" x2="729.2" y2="80.0" stroke="#e6e8ee" stroke-width="2"/>
<circle cx="389.5" cy="75.0" r="4.2" fill="#9aa1ad" stroke="#ffffff" stroke-width="1.2"/>
<circle cx="407.6" cy="85.0" r="4.8" fill="#7f8796" stroke="#ffffff" stroke-width="1.2"/>
<circle cx="550.3" cy="80.0" r="6.3" fill="#3f41ff" stroke="#ffffff" stroke-width="1.2"/>
<circle cx="729.2" cy="80.0" r="6.3" fill="#149b8f" stroke="#ffffff" stroke-width="1.2"/>
<text x="560.31" y="70.0" text-anchor="start" font-size="11" font-weight="700" fill="#3f41ff" >0.493</text>
<text x="40" y="138.0" text-anchor="start" font-size="12.5" font-weight="650" fill="#111111" class="label">VG08</text>
<line x1="380.8" y1="134.0" x2="648.8" y2="134.0" stroke="#e6e8ee" stroke-width="2"/>
<circle cx="390.9" cy="129.0" r="4.2" fill="#9aa1ad" stroke="#ffffff" stroke-width="1.2"/>
<circle cx="380.8" cy="139.0" r="4.8" fill="#7f8796" stroke="#ffffff" stroke-width="1.2"/>
<circle cx="532.9" cy="134.0" r="6.3" fill="#3f41ff" stroke="#ffffff" stroke-width="1.2"/>
<circle cx="648.8" cy="134.0" r="6.3" fill="#149b8f" stroke="#ffffff" stroke-width="1.2"/>
<text x="542.8900000000001" y="124.0" text-anchor="start" font-size="11" font-weight="700" fill="#3f41ff" >0.467</text>
<text x="40" y="192.0" text-anchor="start" font-size="12.5" font-weight="650" fill="#111111" class="label">SQSTM</text>
<line x1="390.9" y1="188.0" x2="702.4" y2="188.0" stroke="#e6e8ee" stroke-width="2"/>
<circle cx="390.9" cy="183.0" r="4.2" fill="#9aa1ad" stroke="#ffffff" stroke-width="1.2"/>
<circle cx="461.2" cy="193.0" r="4.8" fill="#7f8796" stroke="#ffffff" stroke-width="1.2"/>
<circle cx="640.1" cy="188.0" r="6.3" fill="#3f41ff" stroke="#ffffff" stroke-width="1.2"/>
<circle cx="702.4" cy="188.0" r="6.3" fill="#149b8f" stroke="#ffffff" stroke-width="1.2"/>
<text x="650.0899999999999" y="178.0" text-anchor="start" font-size="11" font-weight="700" fill="#3f41ff" >0.627</text>
<text x="40" y="246.0" text-anchor="start" font-size="12.5" font-weight="650" fill="#111111" class="label">ENVZ same-pos</text>
<line x1="354.0" y1="242.0" x2="514.8" y2="242.0" stroke="#e6e8ee" stroke-width="2"/>
<circle cx="387.5" cy="237.0" r="4.2" fill="#9aa1ad" stroke="#ffffff" stroke-width="1.2"/>
<circle cx="354.0" cy="247.0" r="4.8" fill="#7f8796" stroke="#ffffff" stroke-width="1.2"/>
<circle cx="434.4" cy="242.0" r="6.3" fill="#3f41ff" stroke="#ffffff" stroke-width="1.2"/>
<circle cx="514.8" cy="242.0" r="6.3" fill="#149b8f" stroke="#ffffff" stroke-width="1.2"/>
<text x="444.4" y="232.0" text-anchor="start" font-size="11" font-weight="700" fill="#3f41ff" >0.320</text>
<text x="40" y="300.0" text-anchor="start" font-size="12.5" font-weight="650" fill="#111111" class="label">REV_HV1H2</text>
<line x1="327.2" y1="296.0" x2="461.2" y2="296.0" stroke="#e6e8ee" stroke-width="2"/>
<circle cx="388.8" cy="291.0" r="4.2" fill="#9aa1ad" stroke="#ffffff" stroke-width="1.2"/>
<circle cx="354.0" cy="301.0" r="4.8" fill="#7f8796" stroke="#ffffff" stroke-width="1.2"/>
<circle cx="461.2" cy="296.0" r="6.3" fill="#3f41ff" stroke="#ffffff" stroke-width="1.2"/>
<circle cx="327.2" cy="296.0" r="6.3" fill="#149b8f" stroke="#ffffff" stroke-width="1.2"/>
<text x="471.2" y="286.0" text-anchor="start" font-size="11" font-weight="700" fill="#3f41ff" >0.360</text>
<text x="40" y="354.0" text-anchor="start" font-size="12.5" font-weight="650" fill="#111111" class="label">MBD11</text>
<line x1="388.2" y1="350.0" x2="836.4" y2="350.0" stroke="#e6e8ee" stroke-width="2"/>
<circle cx="388.2" cy="345.0" r="4.2" fill="#9aa1ad" stroke="#ffffff" stroke-width="1.2"/>
<circle cx="506.1" cy="355.0" r="4.8" fill="#7f8796" stroke="#ffffff" stroke-width="1.2"/>
<circle cx="425.7" cy="350.0" r="6.3" fill="#3f41ff" stroke="#ffffff" stroke-width="1.2"/>
<circle cx="836.4" cy="350.0" r="6.3" fill="#149b8f" stroke="#ffffff" stroke-width="1.2"/>
<text x="435.69" y="340.0" text-anchor="start" font-size="11" font-weight="700" fill="#3f41ff" >0.307</text>
<text x="40" y="408.0" text-anchor="start" font-size="12.5" font-weight="650" fill="#111111" class="label">ENVZ global</text>
<line x1="354.0" y1="404.0" x2="514.8" y2="404.0" stroke="#e6e8ee" stroke-width="2"/>
<circle cx="387.5" cy="399.0" r="4.2" fill="#9aa1ad" stroke="#ffffff" stroke-width="1.2"/>
<circle cx="354.0" cy="409.0" r="4.8" fill="#7f8796" stroke="#ffffff" stroke-width="1.2"/>
<circle cx="398.9" cy="404.0" r="6.3" fill="#3f41ff" stroke="#ffffff" stroke-width="1.2"/>
<circle cx="514.8" cy="404.0" r="6.3" fill="#149b8f" stroke="#ffffff" stroke-width="1.2"/>
<text x="408.89" y="390.0" text-anchor="start" font-size="11" font-weight="700" fill="#3f41ff" >0.267</text>
<circle cx="292" cy="500" r="5" fill="#9aa1ad"/>
<text x="304" y="504" text-anchor="start" font-size="11.5" font-weight="600" fill="#5f6672" class="legend-text">Random</text>
<circle cx="428" cy="500" r="5" fill="#7f8796"/>
<text x="440" y="504" text-anchor="start" font-size="11.5" font-weight="600" fill="#5f6672" class="legend-text">Raw likelihood</text>
<circle cx="586" cy="500" r="5" fill="#3f41ff"/>
<text x="598" y="504" text-anchor="start" font-size="11.5" font-weight="600" fill="#5f6672" class="legend-text">DPO delta</text>
<circle cx="722" cy="500" r="5" fill="#149b8f"/>
<text x="734" y="504" text-anchor="start" font-size="11.5" font-weight="600" fill="#5f6672" class="legend-text">Position baseline</text>
  </g>
</svg>
