<svg width="1200" height="700" viewBox="0 0 1200 700" fill="none" xmlns="http://www.w3.org/2000/svg">
  <rect width="1200" height="700" rx="24" fill="#FFFFFF"/>
  <rect x="96" y="72" width="1008" height="556" rx="18" fill="#FAFAFC" stroke="#D7D9E3"/>
  <path d="M176 560H1024" stroke="#D1D3DF" stroke-width="2"/>
  <path d="M176 152V560" stroke="#D1D3DF" stroke-width="2"/>
  <path d="M176 468C258 454 308 420 388 386C465 353 536 321 626 306C717 292 801 270 896 230C938 212 980 193 1024 172" stroke="#3F41FF" stroke-width="8" stroke-linecap="round"/>
  <path d="M176 494C250 486 313 460 392 438C460 418 542 382 624 369C706 357 788 344 879 304C926 283 976 258 1024 228" stroke="#111111" stroke-opacity="0.28" stroke-width="8" stroke-linecap="round"/>
  <circle cx="388" cy="386" r="10" fill="#3F41FF"/>
  <circle cx="626" cy="306" r="10" fill="#3F41FF"/>
  <circle cx="896" cy="230" r="10" fill="#3F41FF"/>
  <rect x="848" y="100" width="190" height="92" rx="14" fill="#F4F5FA" stroke="#D7D9E3"/>
  <rect x="876" y="128" width="74" height="12" rx="6" fill="#3F41FF"/>
  <rect x="876" y="150" width="112" height="10" rx="5" fill="#6E7280"/>
  <rect x="876" y="168" width="84" height="10" rx="5" fill="#C7CAD5"/>
  <rect x="244" y="104" width="154" height="12" rx="6" fill="#D1D3DF"/>
  <rect x="244" y="132" width="118" height="12" rx="6" fill="#E1E3EA"/>
  <rect x="244" y="160" width="176" height="12" rx="6" fill="#E1E3EA"/>
  <text x="168" y="598" fill="#6E7280" font-family="Arial, sans-serif" font-size="26">0</text>
  <text x="360" y="598" fill="#6E7280" font-family="Arial, sans-serif" font-size="26">1k</text>
  <text x="566" y="598" fill="#6E7280" font-family="Arial, sans-serif" font-size="26">2k</text>
  <text x="770" y="598" fill="#6E7280" font-family="Arial, sans-serif" font-size="26">3k</text>
  <text x="972" y="598" fill="#6E7280" font-family="Arial, sans-serif" font-size="26">4k</text>
  <text x="134" y="188" fill="#6E7280" font-family="Arial, sans-serif" font-size="24">0.82</text>
  <text x="134" y="320" fill="#6E7280" font-family="Arial, sans-serif" font-size="24">0.76</text>
  <text x="134" y="452" fill="#6E7280" font-family="Arial, sans-serif" font-size="24">0.70</text>
</svg>
