<svg xmlns="http://www.w3.org/2000/svg" width="1120" height="560" viewBox="0 0 1120 560">
<rect width="100%" height="100%" fill="white"/>
<style>text{font-family:Arial,sans-serif}.title{font-weight:700;font-size:15px}.axis{font-size:12px}.point{font-size:12px;font-weight:700}</style>
<text class="title" x="306.5" y="24" text-anchor="middle">BFCL core vs guardrail regression</text>
<line x1="72.0" y1="490.0" x2="541.0" y2="490.0" stroke="#333"/>
<line x1="72.0" y1="48.0" x2="72.0" y2="490.0" stroke="#333"/>
<line x1="512.8" y1="48.0" x2="512.8" y2="490.0" stroke="#999" stroke-width="0.8"/>
<line x1="72.0" y1="413.4" x2="541.0" y2="413.4" stroke="#999" stroke-width="0.8"/>
<text class="axis" x="306.5" y="540" text-anchor="middle">IFEval prompt-strict delta vs SFT baseline (pp)</text>
<text class="axis" x="24.0" y="269.0" text-anchor="middle" transform="rotate(-90 24.0 269.0)">BFCL core delta vs SFT baseline (pp)</text>
<line x1="292.4" y1="138.4" x2="108.7" y2="256.2" stroke="#2364aa" stroke-width="1.2" opacity="0.55"/>
<line x1="329.1" y1="334.8" x2="255.7" y2="452.7" stroke="#c43b3b" stroke-width="1.2" opacity="0.55"/>
<line x1="292.4" y1="158.0" x2="145.5" y2="236.6" stroke="#2364aa" stroke-width="1.2" opacity="0.55"/>
<line x1="329.1" y1="315.2" x2="255.7" y2="433.0" stroke="#c43b3b" stroke-width="1.2" opacity="0.55"/>
<circle cx="292.4" cy="138.4" r="6.5" fill="#2364aa" stroke="white" stroke-width="1"/>
<text class="point" x="301.4" y="131.4">A</text>
<circle cx="108.7" cy="256.2" r="6.5" fill="#2364aa" stroke="white" stroke-width="1"/>
<text class="point" x="117.7" y="249.2">B</text>
<circle cx="329.1" cy="334.8" r="6.5" fill="#c43b3b" stroke="white" stroke-width="1"/>
<text class="point" x="338.1" y="327.8">C</text>
<circle cx="255.7" cy="452.7" r="6.5" fill="#c43b3b" stroke="white" stroke-width="1"/>
<text class="point" x="264.7" y="445.7">D</text>
<rect x="285.9" y="151.5" width="13" height="13" fill="#2364aa" stroke="white" stroke-width="1"/>
<text class="point" x="301.4" y="151.0">E</text>
<rect x="139.0" y="230.1" width="13" height="13" fill="#2364aa" stroke="white" stroke-width="1"/>
<text class="point" x="154.5" y="229.6">F</text>
<rect x="322.6" y="308.7" width="13" height="13" fill="#c43b3b" stroke="white" stroke-width="1"/>
<text class="point" x="338.1" y="308.2">G</text>
<rect x="249.2" y="426.5" width="13" height="13" fill="#c43b3b" stroke="white" stroke-width="1"/>
<text class="point" x="264.7" y="426.0">H</text>
<text class="title" x="853.5" y="24" text-anchor="middle">When2Call macro F1 vs guardrail regression</text>
<line x1="619.0" y1="490.0" x2="1088.0" y2="490.0" stroke="#333"/>
<line x1="619.0" y1="48.0" x2="619.0" y2="490.0" stroke="#333"/>
<line x1="1059.8" y1="48.0" x2="1059.8" y2="490.0" stroke="#999" stroke-width="0.8"/>
<line x1="619.0" y1="409.1" x2="1088.0" y2="409.1" stroke="#999" stroke-width="0.8"/>
<text class="axis" x="853.5" y="540" text-anchor="middle">IFEval prompt-strict delta vs SFT baseline (pp)</text>
<text class="axis" x="571.0" y="269.0" text-anchor="middle" transform="rotate(-90 571.0 269.0)">When2Call macro F1 delta vs SFT baseline (pp)</text>
<line x1="839.4" y1="436.8" x2="655.7" y2="418.7" stroke="#2364aa" stroke-width="1.2" opacity="0.55"/>
<line x1="876.1" y1="106.2" x2="802.7" y2="117.8" stroke="#c43b3b" stroke-width="1.2" opacity="0.55"/>
<line x1="839.4" y1="402.6" x2="692.5" y2="373.2" stroke="#2364aa" stroke-width="1.2" opacity="0.55"/>
<line x1="876.1" y1="140.7" x2="802.7" y2="109.2" stroke="#c43b3b" stroke-width="1.2" opacity="0.55"/>
<circle cx="839.4" cy="436.8" r="6.5" fill="#2364aa" stroke="white" stroke-width="1"/>
<text class="point" x="848.4" y="429.8">A</text>
<circle cx="655.7" cy="418.7" r="6.5" fill="#2364aa" stroke="white" stroke-width="1"/>
<text class="point" x="664.7" y="411.7">B</text>
<circle cx="876.1" cy="106.2" r="6.5" fill="#c43b3b" stroke="white" stroke-width="1"/>
<text class="point" x="885.1" y="99.2">C</text>
<circle cx="802.7" cy="117.8" r="6.5" fill="#c43b3b" stroke="white" stroke-width="1"/>
<text class="point" x="811.7" y="110.8">D</text>
<rect x="832.9" y="396.1" width="13" height="13" fill="#2364aa" stroke="white" stroke-width="1"/>
<text class="point" x="848.4" y="395.6">E</text>
<rect x="686.0" y="366.7" width="13" height="13" fill="#2364aa" stroke="white" stroke-width="1"/>
<text class="point" x="701.5" y="366.2">F</text>
<rect x="869.6" y="134.2" width="13" height="13" fill="#c43b3b" stroke="white" stroke-width="1"/>
<text class="point" x="885.1" y="133.7">G</text>
<rect x="796.2" y="102.7" width="13" height="13" fill="#c43b3b" stroke="white" stroke-width="1"/>
<text class="point" x="811.7" y="102.2">H</text>
</svg>
